<svg xmlns="http://www.w3.org/2000/svg" viewBox="0 0 122.59 94.83"><defs><style>.cls-1{fill:#ef4136;}</style></defs><g id="Layer_2" data-name="Layer 2"><g id="Layer_2-2" data-name="Layer 2"><path class="cls-1" d="M122.59,34.9l-.84,1.68L118,37.85l-1.9-.85-1.48.64-.2,4.21.2,2.09v6.75l-.84,2.09-1.25,1.47L111,55.93l-1.7.42-2.08.43-2.74.21.41,1.26.42,3.77.21,2.33.43,3.79.41,1.9v1.88l-.62,2.52-.85,4-.41,1.69-1.06,2.11-1.25,1.88-1.07,1.68-1,1.9-1.27,1.24-1.47,1.7-.84,1.48,1.06.2-.43,2.11-2.94.41-1.88-.2H87.68l-1.88.2-2.32-.41-1.9.21-2.1.2-2.09-.41-2.33.2-1.89-.2-1.9.41-2.51-.2-1.88.2-4.65-.41-1.67.2-2.32.2H53.83l-1.68-.4-2.31.2h-1.9l-2.1.2-2.73-.2-2.1.2h-1.9l-1.89-.2-2.1.2-2.52-.41H30.7l-1.88.41-3.37-.41-.21-1.67,1.68-.64-1.68-1.47-1.06-1.7-1.25-1.47-1.27-1.68L20.18,83.9l-.62-1.68L18.3,79.89l-.42-1.47L17,74l-.21-2.09V70.44l-.43-2.11.43-1.9L17,64.34l.41-2.1.63-3.79.22-1.68H13.89L12,55.71l-1.68-1.27L8.83,52.56l-.63-2.1v-4.2L8,44.13l.63-2.29-.22-4.21L7.15,36.56l-1.69.86-4.41-.63L0,34.68l.84-4.41,1.9-1.05,4.62.2,1.88,1.07L10.94,32l1.25,1.26,1.27,1.68,1.47,3.58.84,1.9,1.47,3.77,4.21-1,.84-4.64.41-2.1-.2-1.89L22.29,32l-.84-3.15.42-2.52,2.31-.43,1.06-.41,1.68-1.27.21-4,1.69-1.68,3.56-1.68,1.9-.63,6.1-.84,2.31-.84,1.9.21,2.51-.63,1.9-.21,2.32-.2,5-.64-.84-1-1.68-1.68L51.52,7.78l-.2-4,1-1.46,1.9-1L56.57.42,59.09,0l4.85.42h1.67l2.52.85,1.68.62,1.47,1.69-.21,3.78L69,10.51l-1.88,1.05-.63,1.69h2.73l2.52.84,1.89.21,2.53.21,2.1.21h1.68l2.52.63,2.31.21,4,.63,1.88.63,3.78,1.89.84,1.47.86,4.2,1.47,1.48.84-.42,2.72,1,.63,2.52-1.47,3.15-.2,1.9v4.42l1.67,4.63,4,1,1.89-4,.63-1.7,1-3.78,1.27-1.27,1.67-1.88L114,30.49l1.7-.62,4.19-1.06L122,30.07ZM22.92,66.44l.21-.62v-.63l-.43-.43h-.61l-.64,1.06.41,1.27Zm.21-9.25.2,1.06v1.48l.23.2.41.2.2-.2.22-.43.42-.43L25,57.39l-.22-.82L24,56.35ZM24.6,75.27l.43-.41-.22-.43-.41-.2-.84.2-.43.43.2.2h.23l.41.21Zm1.48,6.1-.64-.62-.2.21-.43.2-.21.43.21.43h.84l.43-.43Zm-.64-10.72-.41.41-.22.45.22.41.21.2h.63V71.06Zm-.2-25.23.41.2.43-.2h.2l.22-.62.2-.43.42-.43v-.82l1.69-1.27h1.47l.84-.85-.42-.82-1.05-1.27H28.59l-.84-.63-.63,1,.22,1.06-1.06.84v.63l-.2.41v1.89l-.84.44Zm.2-13.26,1.07.23v.2l.4,1.27v.2l1.27,1.27.2.63v.62h1.27l.21-.62.42-.63-.42-1.27V32.81L29.65,32v-.62l-.84-.43H27.55ZM27.55,65.4l-.64-.64-.63-.2-.41-.2v.41l.21.63.83.63.43-.2Zm1-11.15-.41-.41-.42.21-.21.83v1l1-.62V54.25Zm1.27-7.36.84.2-.21-.2-.2-.41-.23-.86-.84-.2L28.38,45l-.42.41h-.21v.2l.21.22.42.21.64.43ZM28,29l.43.23.43.42H29l.41-.22h.43l.43-.2V28l-.23-.84-.2-.41-.84.2-.43.41-.41.21v.22l-.22.43Zm12.84.43L40.37,29H40l-.43-.2-.43-.41-.2-.86-.41-.41v-.2l.2-.2-.2-.23.41-.84v-.41L38.26,24l-.63-.21h-.2L36,23.56l-1-.21h-.84L33,23.56,31.76,24h-.43l-1.27.83v.84h.43l.41.21.43-.21h.43l.41-.21h1.27l.2.21h.64l.63.21.84.42v.64l.84.41.63.42h.21l.42.84.64.64-.22.63-.2.41.42,1.06.41-.2.84-.86.64-.2ZM33,49.63l-.84-.84-.63-.43-.21-.21.21.42v.65l-1.05,1,.64.84L32,52.16l.63-.22Zm-1.25-14.3.41-.43.21-.41L32,34.06l-.21-.43-.43.22-.42.43v1.26l-.2.22V37l.42.64.41.41h.84l.22-1L32,36.17v-.41Zm2.93-3.58-.2-.41v-.21l-.42-.22H32.38l-.84.22-.63.21v.41l.22.41h.2l.43-.2,1.46.2h.22l.41-.2.64-.21Zm-.41,10.1-.21-1.47L33,39.74l-1,.2-.64,1.27v1.25l.21,1.06.22.21.84.63.62.43.42.21v-.86l.21-.62v-.2l.22-.85ZM32.6,61.2,32.38,61h-.84v.42l.22.21h.62Zm2.72-30.51.63.22v-.63L34.48,28.8l-.41-.61-.43-1.27v-.2L32.38,28.6V29l.43.22.63.64.63.41.21.41h1Zm-.63,2.94-.2-.41-.42-.41h-.42l-.43.21.22.4.21.64.42.42.62.21Zm-1.25,3.6.41-.23.22-.2L33.64,36l-.2.42-.22.2v.22ZM35.11,20l1,1.05.43.63.43.41.41.64h.42l.21-.2.63-.22.42-.63L38.9,21h-.41l-.22-.22-.64-.42-1.47-.63-.61-.42-.23.21Zm1,18.07-.41-.82-.43.41-.21.41.21.85.43.21.2-.21Zm4-3.77-.43-.43-.41-.22L38.27,33l-.84-.43-.21.22-.2.41-.43.63.21.64.22.41,1.25.43h1.06l.2-.22.2-.42Zm-1.48,4.83-.84-1.26-.22.42v1.48l-.84.63V41l.64.22.63-.84.2-.64Zm-.84,10.31-.63-.21-.2.21H36.8L37,50l.41.43.42-.43v-.62ZM41.64,28.6l.2-.41v-.43l-.2-.84H40.8l-.43.21v.63Zm1.68,12.62-.64-.63-.2-.41L41.85,40h-.21l-.22.43-.21.21v.63l.43.43.63.2.42.21h.43v-.21l.2-.2v-.43Zm3.57-10.94-.42-.41h-.41l-.22.2-.21.41-1,.2-.43.23-.64.63.23.41-.23.43.64-.22h1.06l.2-.2.42-.21.22-.41.41-.21h.2l.22-.44Zm-3.14-5.69.41.43.43.22h.63l.2-.65-.2-.41h-.63Zm3.78-2.93-.64-1.06-.83-.42L45,20.82v.84l.64,1.05,1,.41.85-.61v-.85ZM49,38.48l-.22-.21-.2.21v.42l-.21.41.21.44v.43l.43-.66Zm1.88-12,.84-.43-.2-.62V25l-.2-.2-.43-.22-.41-.41.61-.41v-.43l-.41-.22-.2-.21-.22.43-.21.63h.21l.22.2h-.22l-.42.21-.63.63-.2.43.41.84.84.43h.42ZM52.36,36l-.64-.85v.65L52,36Zm1.47-11.78v-.63L53,22.92l-.43.2-.61.43.2,1,.41-.2h.64Zm3,9-.2-.2v-.43l-.23-.21v-.22l-.21-.62-.2-.41v-.44l-.42-.2-.21-.21-.84.41v.22l-.2.43-.43.41,1,1.06.63.41.43.21.41.43h.43ZM55.1,21.66l.41,1.05.22-.2.41-.22V21.24l-.84-.84Zm6.72-.42.64-.42.21-.64-.21-.2L62,19.77l-.63.42-.21.63.21.42Zm1.26,5.26-.21-.64h-.2l-.21-.21-.22.42-.2.22.63.63h.41ZM67.72,85l-.23-.22h-1l-1,.63,1.25.62,1.06-.62V85Zm1-63.09-.43-.21h-.62l-.63.41v.64l.41.2h.64l.42-.62Zm6.93,67.29-.2-.84h-.63l-.41.2v.41l.41.43.43.23Zm2.54-67.29-.63-.63-.64.83-.2,1.48.63-.43.41-.41ZM81.17,83.7,81,83.06l-.41-.22-.21-.2-.43.43v.63l.21.61.43.21.21-.21h.42V83.7ZM90.62,81l-.4-.41-.85-.43-.42.2-.21.23.21.61.42.43h1l.2-.22Zm1.9,2.74-.2.2-.43.21-.63.41v.65l-.42.61.21.21h.84l.43-.41.2-.62V83.7ZM95.24,77l-.2-.41-.84-.2-.41.2-.22.2v1.48l-.21.42.21.43.22.2.62-.2.43-.22.2-.21.2-.63Zm3.17-13L98,63.5l-.2-.42-.43.84v.63l.22.42.41.22.21-.22v-.42Z"/></g></g></svg>