<svg xmlns="http://www.w3.org/2000/svg" width="24" height="27.186" viewBox="0 0 24 27.186">
  <g id="scroll-arrow" data-name="Group 1362" transform="translate(-948 -1019.477)">
    <path id="scroll-arrow1" class="cls-1" d="M9.586,12,.5,2.921A1.708,1.708,0,0,1,.5.5,1.73,1.73,0,0,1,2.933.5l10.29,10.282a1.712,1.712,0,0,1,.05,2.365L2.94,23.5A1.715,1.715,0,0,1,.511,21.077Z" transform="translate(972 1032.941) rotate(90)"/>
    <path id="scroll-arrow2" class="cls-1" d="M9.586,12,.5,2.921A1.708,1.708,0,0,1,.5.5,1.73,1.73,0,0,1,2.933.5l10.29,10.282a1.712,1.712,0,0,1,.05,2.365L2.94,23.5A1.715,1.715,0,0,1,.511,21.077Z" transform="translate(972 1019.477) rotate(90)"/>
  </g>
</svg>
