<?xml version="1.0" encoding="utf-8"?>
<!-- Generator: Adobe Illustrator 25.2.0, SVG Export Plug-In . SVG Version: 6.00 Build 0)  -->
<svg version="1.1" id="Layer_1" xmlns="http://www.w3.org/2000/svg" xmlns:xlink="http://www.w3.org/1999/xlink" x="0px" y="0px"
	 viewBox="0 0 459.9 254.1" style="enable-background:new 0 0 459.9 254.1;" xml:space="preserve">
<style type="text/css">
	.st0{fill:none;stroke:#FFFFFF;stroke-width:2.414;stroke-miterlimit:10;}
	.st1{fill:#FFFFFF;}
</style>
<g transform="translate(-189.749 -144.616)">
	<line class="st0" x1="478.8" y1="330.6" x2="474.1" y2="335.4"/>
	<line class="st0" x1="479.1" y1="335.4" x2="474.1" y2="330.6"/>
	<line class="st0" x1="473.9" y1="325" x2="469.1" y2="329.8"/>
	<line class="st0" x1="474.1" y1="329.8" x2="469.1" y2="325"/>
	<line class="st0" x1="478.8" y1="320.1" x2="474.1" y2="325"/>
	<line class="st0" x1="479.1" y1="325" x2="474.1" y2="320.1"/>
	<line class="st0" x1="484.5" y1="320.1" x2="479.7" y2="325"/>
	<line class="st0" x1="484.7" y1="325" x2="479.7" y2="320.1"/>
	<line class="st0" x1="489.4" y1="320.1" x2="484.7" y2="325"/>
	<line class="st0" x1="489.6" y1="325" x2="484.7" y2="320.1"/>
	<line class="st0" x1="489.3" y1="325" x2="484.6" y2="329.8"/>
	<line class="st0" x1="489.5" y1="329.8" x2="484.6" y2="325"/>
	<line class="st0" x1="499.1" y1="320.1" x2="494.3" y2="325"/>
	<line class="st0" x1="499.3" y1="325" x2="494.3" y2="320.1"/>
	<line class="st0" x1="504.7" y1="320.1" x2="499.9" y2="325"/>
	<line class="st0" x1="504.9" y1="325" x2="499.9" y2="320.1"/>
	<line class="st0" x1="509.7" y1="320.1" x2="504.9" y2="325"/>
	<line class="st0" x1="509.9" y1="325" x2="504.9" y2="320.1"/>
	<line class="st0" x1="489.2" y1="329.8" x2="484.5" y2="334.7"/>
	<line class="st0" x1="489.4" y1="334.7" x2="484.5" y2="329.8"/>
	<line class="st0" x1="494.8" y1="329.8" x2="490.1" y2="334.7"/>
	<line class="st0" x1="495" y1="334.7" x2="490.1" y2="329.8"/>
	<line class="st0" x1="499.8" y1="329.8" x2="495" y2="334.7"/>
	<line class="st0" x1="500" y1="334.7" x2="495" y2="329.8"/>
	<line class="st0" x1="489.2" y1="340.6" x2="484.5" y2="345.4"/>
	<line class="st0" x1="489.4" y1="345.4" x2="484.5" y2="340.6"/>
	<line class="st0" x1="494.8" y1="340.6" x2="490.1" y2="345.4"/>
	<line class="st0" x1="495" y1="345.4" x2="490.1" y2="340.6"/>
	<line class="st0" x1="499.8" y1="340.6" x2="495" y2="345.4"/>
	<line class="st0" x1="500" y1="345.4" x2="495" y2="340.6"/>
	<line class="st0" x1="489.4" y1="345.4" x2="484.7" y2="350.3"/>
	<line class="st0" x1="489.6" y1="350.3" x2="484.7" y2="345.4"/>
	<line class="st0" x1="495" y1="345.4" x2="490.3" y2="350.3"/>
	<line class="st0" x1="495.2" y1="350.3" x2="490.3" y2="345.4"/>
	<line class="st0" x1="500" y1="345.4" x2="495.2" y2="350.3"/>
	<line class="st0" x1="500.2" y1="350.3" x2="495.2" y2="345.4"/>
	<line class="st0" x1="489.3" y1="365.4" x2="484.6" y2="370.3"/>
	<line class="st0" x1="489.5" y1="370.3" x2="484.6" y2="365.4"/>
	<line class="st0" x1="494.9" y1="365.4" x2="490.2" y2="370.3"/>
	<line class="st0" x1="495.1" y1="370.3" x2="490.2" y2="365.4"/>
	<line class="st0" x1="499.9" y1="365.4" x2="495.1" y2="370.3"/>
	<line class="st0" x1="500.1" y1="370.3" x2="495.1" y2="365.4"/>
	<line class="st0" x1="489.5" y1="370.3" x2="484.8" y2="375.1"/>
	<line class="st0" x1="489.7" y1="375.1" x2="484.8" y2="370.3"/>
	<line class="st0" x1="495.1" y1="370.3" x2="490.4" y2="375.1"/>
	<line class="st0" x1="495.3" y1="375.1" x2="490.4" y2="370.3"/>
	<line class="st0" x1="500.1" y1="370.3" x2="495.3" y2="375.1"/>
	<line class="st0" x1="500.3" y1="375.1" x2="495.3" y2="370.3"/>
	<line class="st0" x1="488.3" y1="380.9" x2="483.5" y2="385.8"/>
	<line class="st0" x1="488.5" y1="385.8" x2="483.5" y2="380.9"/>
	<line class="st0" x1="493.9" y1="380.9" x2="489.1" y2="385.8"/>
	<line class="st0" x1="494.1" y1="385.8" x2="489.1" y2="380.9"/>
	<line class="st0" x1="498.9" y1="380.9" x2="494.1" y2="385.8"/>
	<line class="st0" x1="499.1" y1="385.8" x2="494.1" y2="380.9"/>
	<line class="st0" x1="488.5" y1="385.8" x2="483.7" y2="390.7"/>
	<line class="st0" x1="488.7" y1="390.7" x2="483.7" y2="385.8"/>
	<line class="st0" x1="494.1" y1="385.8" x2="489.3" y2="390.7"/>
	<line class="st0" x1="494.3" y1="390.7" x2="489.3" y2="385.8"/>
	<line class="st0" x1="499.1" y1="385.8" x2="494.3" y2="390.7"/>
	<line class="st0" x1="499.3" y1="390.7" x2="494.3" y2="385.8"/>
	<line class="st0" x1="489.1" y1="335.4" x2="484.3" y2="340.3"/>
	<line class="st0" x1="489.3" y1="340.3" x2="484.3" y2="335.4"/>
	<line class="st0" x1="499.8" y1="334.7" x2="495" y2="339.6"/>
	<line class="st0" x1="500" y1="339.6" x2="495" y2="334.7"/>
	<line class="st0" x1="499.7" y1="325" x2="494.9" y2="329.8"/>
	<line class="st0" x1="499.9" y1="329.8" x2="494.9" y2="325"/>
	<line class="st0" x1="494.7" y1="325" x2="490" y2="329.8"/>
	<line class="st0" x1="494.9" y1="329.8" x2="490" y2="325"/>
	<line class="st0" x1="514.4" y1="325.7" x2="509.7" y2="330.6"/>
	<line class="st0" x1="514.6" y1="330.6" x2="509.7" y2="325.7"/>
	<line class="st0" x1="504.6" y1="356" x2="499.8" y2="360.9"/>
	<line class="st0" x1="504.8" y1="360.9" x2="499.8" y2="356"/>
	<line class="st0" x1="483.6" y1="356" x2="478.8" y2="360.9"/>
	<line class="st0" x1="483.8" y1="360.9" x2="478.8" y2="356"/>
	<line class="st0" x1="489.3" y1="351" x2="484.5" y2="355.9"/>
	<line class="st0" x1="489.5" y1="355.9" x2="484.5" y2="351"/>
	<line class="st0" x1="500" y1="350.3" x2="495.2" y2="355.2"/>
	<line class="st0" x1="500.2" y1="355.2" x2="495.2" y2="350.3"/>
	<line class="st0" x1="488.5" y1="375.2" x2="483.7" y2="380.1"/>
	<line class="st0" x1="488.7" y1="380.1" x2="483.7" y2="375.2"/>
	<line class="st0" x1="499.1" y1="376.1" x2="494.3" y2="380.9"/>
	<line class="st0" x1="499.3" y1="380.9" x2="494.3" y2="376.1"/>
	<line class="st0" x1="489.3" y1="360.6" x2="484.5" y2="365.5"/>
	<line class="st0" x1="489.5" y1="365.5" x2="484.5" y2="360.6"/>
	<line class="st0" x1="499.1" y1="360.6" x2="494.3" y2="365.5"/>
	<line class="st0" x1="499.3" y1="365.5" x2="494.3" y2="360.6"/>
	<line class="st0" x1="478.3" y1="390.7" x2="473.6" y2="395.6"/>
	<line class="st0" x1="478.5" y1="395.6" x2="473.6" y2="390.7"/>
	<line class="st0" x1="483.9" y1="390.7" x2="479.2" y2="395.6"/>
	<line class="st0" x1="484.1" y1="395.6" x2="479.2" y2="390.7"/>
	<line class="st0" x1="488.9" y1="390.7" x2="484.1" y2="395.6"/>
	<line class="st0" x1="489.1" y1="395.6" x2="484.1" y2="390.7"/>
	<line class="st0" x1="500.1" y1="390.7" x2="495.3" y2="395.6"/>
	<line class="st0" x1="500.3" y1="395.6" x2="495.3" y2="390.7"/>
	<line class="st0" x1="505.7" y1="390.7" x2="501" y2="395.6"/>
	<line class="st0" x1="505.9" y1="395.6" x2="501" y2="390.7"/>
	<line class="st0" x1="510.7" y1="390.7" x2="505.9" y2="395.6"/>
	<line class="st0" x1="510.9" y1="395.6" x2="505.9" y2="390.7"/>
	<line class="st0" x1="529.1" y1="346.2" x2="524.3" y2="351"/>
	<line class="st0" x1="529.3" y1="351" x2="524.3" y2="346.2"/>
	<line class="st0" x1="534.7" y1="346.2" x2="529.9" y2="351"/>
	<line class="st0" x1="534.9" y1="351" x2="529.9" y2="346.2"/>
	<line class="st0" x1="539.7" y1="346.2" x2="534.9" y2="351"/>
	<line class="st0" x1="539.9" y1="351" x2="534.9" y2="346.2"/>
	<line class="st0" x1="528.2" y1="341.3" x2="523.4" y2="346.2"/>
	<line class="st0" x1="528.4" y1="346.2" x2="523.4" y2="341.3"/>
	<line class="st0" x1="533.8" y1="341.3" x2="529" y2="346.2"/>
	<line class="st0" x1="534" y1="346.2" x2="529" y2="341.3"/>
	<line class="st0" x1="538.8" y1="341.3" x2="534" y2="346.2"/>
	<line class="st0" x1="539" y1="346.2" x2="534" y2="341.3"/>
	<line class="st0" x1="519.4" y1="320.1" x2="514.6" y2="325"/>
	<line class="st0" x1="519.6" y1="325" x2="514.6" y2="320.1"/>
	<line class="st0" x1="525" y1="320.1" x2="520.3" y2="325"/>
	<line class="st0" x1="525.2" y1="325" x2="520.3" y2="320.1"/>
	<line class="st0" x1="529.4" y1="325.7" x2="524.6" y2="330.6"/>
	<line class="st0" x1="529.6" y1="330.6" x2="524.6" y2="325.7"/>
	<line class="st0" x1="535" y1="325.7" x2="530.2" y2="330.6"/>
	<line class="st0" x1="535.2" y1="330.6" x2="530.2" y2="325.7"/>
	<line class="st0" x1="519.7" y1="390.7" x2="515" y2="395.6"/>
	<line class="st0" x1="519.9" y1="395.6" x2="515" y2="390.7"/>
	<line class="st0" x1="525.3" y1="390.7" x2="520.6" y2="395.6"/>
	<line class="st0" x1="525.5" y1="395.6" x2="520.6" y2="390.7"/>
	<line class="st0" x1="529.4" y1="385.8" x2="524.6" y2="390.7"/>
	<line class="st0" x1="529.6" y1="390.7" x2="524.6" y2="385.8"/>
	<line class="st0" x1="535" y1="385.8" x2="530.2" y2="390.7"/>
	<line class="st0" x1="535.2" y1="390.7" x2="530.2" y2="385.8"/>
	<line class="st0" x1="529.1" y1="380.1" x2="524.3" y2="385"/>
	<line class="st0" x1="529.3" y1="385" x2="524.3" y2="380.1"/>
	<line class="st0" x1="534.7" y1="380.1" x2="529.9" y2="385"/>
	<line class="st0" x1="534.9" y1="385" x2="529.9" y2="380.1"/>
	<line class="st0" x1="473" y1="385" x2="468.3" y2="389.9"/>
	<line class="st0" x1="473.2" y1="389.9" x2="468.3" y2="385"/>
	<line class="st0" x1="478.8" y1="380.1" x2="474.1" y2="385"/>
	<line class="st0" x1="479.1" y1="385" x2="474.1" y2="380.1"/>
	<line class="st0" x1="514.6" y1="385.8" x2="509.9" y2="390.7"/>
	<line class="st0" x1="514.9" y1="390.7" x2="509.9" y2="385.8"/>
	<line class="st0" x1="529.4" y1="331.6" x2="524.6" y2="336.4"/>
	<line class="st0" x1="529.6" y1="336.4" x2="524.6" y2="331.6"/>
	<line class="st0" x1="535" y1="331.6" x2="530.2" y2="336.4"/>
	<line class="st0" x1="535.2" y1="336.4" x2="530.2" y2="331.6"/>
	<line class="st0" x1="528.2" y1="336.4" x2="523.4" y2="341.3"/>
	<line class="st0" x1="528.4" y1="341.3" x2="523.4" y2="336.4"/>
	<line class="st0" x1="539.7" y1="335.4" x2="535" y2="340.3"/>
	<line class="st0" x1="539.9" y1="340.3" x2="535" y2="335.4"/>
	<line class="st0" x1="530.1" y1="371.2" x2="525.3" y2="376.1"/>
	<line class="st0" x1="530.3" y1="376.1" x2="525.3" y2="371.2"/>
	<line class="st0" x1="535.7" y1="371.2" x2="530.9" y2="376.1"/>
	<line class="st0" x1="535.9" y1="376.1" x2="530.9" y2="371.2"/>
	<line class="st0" x1="540.6" y1="371.2" x2="535.9" y2="376.1"/>
	<line class="st0" x1="540.9" y1="376.1" x2="535.9" y2="371.2"/>
	<line class="st0" x1="529.1" y1="366.3" x2="524.4" y2="371.2"/>
	<line class="st0" x1="529.4" y1="371.2" x2="524.4" y2="366.3"/>
	<line class="st0" x1="534.7" y1="366.3" x2="530" y2="371.2"/>
	<line class="st0" x1="535" y1="371.2" x2="530" y2="366.3"/>
	<line class="st0" x1="539.7" y1="366.3" x2="535" y2="371.2"/>
	<line class="st0" x1="539.9" y1="371.2" x2="535" y2="366.3"/>
	<line class="st0" x1="529" y1="351.1" x2="524.3" y2="356"/>
	<line class="st0" x1="529.3" y1="356" x2="524.3" y2="351.1"/>
	<line class="st0" x1="524.2" y1="356" x2="519.4" y2="360.9"/>
	<line class="st0" x1="524.4" y1="360.9" x2="519.4" y2="356"/>
	<line class="st0" x1="529.4" y1="360.9" x2="524.6" y2="365.8"/>
	<line class="st0" x1="529.6" y1="365.8" x2="524.6" y2="360.9"/>
	<line class="st0" x1="540" y1="351.1" x2="535.2" y2="356"/>
	<line class="st0" x1="540.2" y1="356" x2="535.2" y2="351.1"/>
	<line class="st0" x1="545" y1="356" x2="540.2" y2="360.9"/>
	<line class="st0" x1="545.2" y1="360.9" x2="540.2" y2="356"/>
	<line class="st0" x1="539.6" y1="360.9" x2="534.8" y2="365.8"/>
	<line class="st0" x1="539.8" y1="365.8" x2="534.8" y2="360.9"/>
	<line class="st0" x1="539.5" y1="376.1" x2="534.7" y2="380.9"/>
	<line class="st0" x1="539.7" y1="380.9" x2="534.7" y2="376.1"/>
	<line class="st0" x1="529.3" y1="375.2" x2="524.5" y2="380.1"/>
	<line class="st0" x1="529.5" y1="380.1" x2="524.5" y2="375.2"/>
	<line class="st0" x1="568.3" y1="390.1" x2="563.6" y2="395"/>
	<line class="st0" x1="568.6" y1="395" x2="563.6" y2="390.1"/>
	<line class="st0" x1="563.1" y1="390.1" x2="558.3" y2="395"/>
	<line class="st0" x1="563.3" y1="395" x2="558.3" y2="390.1"/>
	<line class="st0" x1="557.8" y1="384.9" x2="553.1" y2="389.8"/>
	<line class="st0" x1="558.1" y1="389.8" x2="553.1" y2="384.9"/>
	<line class="st0" x1="563" y1="379.5" x2="558.2" y2="384.4"/>
	<line class="st0" x1="563.2" y1="384.4" x2="558.2" y2="379.5"/>
	<line class="st0" x1="573.1" y1="384.9" x2="568.3" y2="389.8"/>
	<line class="st0" x1="573.3" y1="389.8" x2="568.3" y2="384.9"/>
	<line class="st0" x1="572.5" y1="379.2" x2="567.7" y2="384"/>
	<line class="st0" x1="572.7" y1="384" x2="567.7" y2="379.2"/>
	<line class="st0" x1="572.3" y1="373.8" x2="567.5" y2="378.6"/>
	<line class="st0" x1="572.5" y1="378.6" x2="567.5" y2="373.8"/>
	<line class="st0" x1="583.1" y1="389.8" x2="578.4" y2="394.6"/>
	<line class="st0" x1="583.3" y1="394.6" x2="578.4" y2="389.8"/>
	<line class="st0" x1="577.9" y1="389.8" x2="573.1" y2="394.6"/>
	<line class="st0" x1="578.1" y1="394.6" x2="573.1" y2="389.8"/>
	<line class="st0" x1="588.1" y1="384.7" x2="583.3" y2="389.5"/>
	<line class="st0" x1="588.3" y1="389.5" x2="583.3" y2="384.7"/>
	<line class="st0" x1="582.6" y1="379.5" x2="577.9" y2="384.4"/>
	<line class="st0" x1="582.9" y1="384.4" x2="577.9" y2="379.5"/>
	<line class="st0" x1="578.2" y1="368.9" x2="573.4" y2="373.8"/>
	<line class="st0" x1="578.4" y1="373.8" x2="573.4" y2="368.9"/>
	<line class="st0" x1="577.6" y1="363.2" x2="572.8" y2="368.1"/>
	<line class="st0" x1="577.8" y1="368.1" x2="572.8" y2="363.2"/>
	<line class="st0" x1="588.7" y1="353.5" x2="584" y2="358.4"/>
	<line class="st0" x1="589" y1="358.4" x2="584" y2="353.5"/>
	<line class="st0" x1="583.1" y1="359.3" x2="578.4" y2="364.1"/>
	<line class="st0" x1="583.3" y1="364.1" x2="578.4" y2="359.3"/>
	<line class="st0" x1="578.2" y1="353.5" x2="573.4" y2="358.4"/>
	<line class="st0" x1="578.4" y1="358.4" x2="573.4" y2="353.5"/>
	<line class="st0" x1="582.8" y1="348.7" x2="578.1" y2="353.6"/>
	<line class="st0" x1="583" y1="353.6" x2="578.1" y2="348.7"/>
	<line class="st0" x1="593.7" y1="364.4" x2="589" y2="369.3"/>
	<line class="st0" x1="593.9" y1="369.3" x2="589" y2="364.4"/>
	<line class="st0" x1="587.8" y1="364.4" x2="583" y2="369.3"/>
	<line class="st0" x1="588" y1="369.3" x2="583" y2="364.4"/>
	<line class="st0" x1="603.5" y1="364.4" x2="598.7" y2="369.3"/>
	<line class="st0" x1="603.7" y1="369.3" x2="598.7" y2="364.4"/>
	<line class="st0" x1="598.7" y1="370.1" x2="593.9" y2="375"/>
	<line class="st0" x1="598.9" y1="375" x2="593.9" y2="370.1"/>
	<line class="st0" x1="608.5" y1="365.3" x2="603.7" y2="370.1"/>
	<line class="st0" x1="608.7" y1="370.1" x2="603.7" y2="365.3"/>
	<line class="st0" x1="588.6" y1="343.8" x2="583.9" y2="348.7"/>
	<line class="st0" x1="588.9" y1="348.7" x2="583.9" y2="343.8"/>
	<line class="st0" x1="588.6" y1="338.9" x2="583.9" y2="343.8"/>
	<line class="st0" x1="588.9" y1="343.8" x2="583.9" y2="338.9"/>
	<line class="st0" x1="618.7" y1="390.1" x2="614" y2="395"/>
	<line class="st0" x1="619" y1="395" x2="614" y2="390.1"/>
	<line class="st0" x1="613.5" y1="390.1" x2="608.7" y2="395"/>
	<line class="st0" x1="613.7" y1="395" x2="608.7" y2="390.1"/>
	<line class="st0" x1="608.2" y1="384.9" x2="603.5" y2="389.8"/>
	<line class="st0" x1="608.5" y1="389.8" x2="603.5" y2="384.9"/>
	<line class="st0" x1="613.4" y1="379.5" x2="608.6" y2="384.4"/>
	<line class="st0" x1="613.6" y1="384.4" x2="608.6" y2="379.5"/>
	<line class="st0" x1="623.5" y1="384.9" x2="618.7" y2="389.8"/>
	<line class="st0" x1="623.7" y1="389.8" x2="618.7" y2="384.9"/>
	<line class="st0" x1="622.9" y1="379.2" x2="618.1" y2="384.1"/>
	<line class="st0" x1="623.1" y1="384.1" x2="618.1" y2="379.2"/>
	<line class="st0" x1="623.7" y1="390.1" x2="619" y2="395"/>
	<line class="st0" x1="623.9" y1="395" x2="619" y2="390.1"/>
	<line class="st0" x1="623" y1="368" x2="618.2" y2="372.9"/>
	<line class="st0" x1="623.2" y1="372.9" x2="618.2" y2="368"/>
	<line class="st0" x1="618.5" y1="368.9" x2="613.7" y2="373.8"/>
	<line class="st0" x1="618.7" y1="373.8" x2="613.7" y2="368.9"/>
	<line class="st0" x1="623.2" y1="373.1" x2="618.4" y2="378"/>
	<line class="st0" x1="623.4" y1="378" x2="618.4" y2="373.1"/>
	<line class="st0" x1="634" y1="374.6" x2="629.2" y2="379.5"/>
	<line class="st0" x1="634.2" y1="379.5" x2="629.2" y2="374.6"/>
	<line class="st0" x1="629.2" y1="368.9" x2="624.4" y2="373.8"/>
	<line class="st0" x1="629.4" y1="373.8" x2="624.4" y2="368.9"/>
	<line class="st0" x1="628.5" y1="379.5" x2="623.7" y2="384.4"/>
	<line class="st0" x1="628.7" y1="384.4" x2="623.7" y2="379.5"/>
	<line class="st0" x1="633.9" y1="379.5" x2="629.1" y2="384.4"/>
	<line class="st0" x1="634.1" y1="384.4" x2="629.1" y2="379.5"/>
	<line class="st0" x1="643.6" y1="379.2" x2="638.8" y2="384.1"/>
	<line class="st0" x1="643.8" y1="384.1" x2="638.8" y2="379.2"/>
	<line class="st0" x1="648.6" y1="384.7" x2="643.8" y2="389.5"/>
	<line class="st0" x1="648.8" y1="389.5" x2="643.8" y2="384.7"/>
	<line class="st0" x1="639.1" y1="389.8" x2="634.3" y2="394.7"/>
	<line class="st0" x1="639.3" y1="394.7" x2="634.3" y2="389.8"/>
	<line class="st0" x1="633.9" y1="389.8" x2="629.1" y2="394.7"/>
	<line class="st0" x1="634.1" y1="394.7" x2="629.1" y2="389.8"/>
	<line class="st0" x1="644.1" y1="389.7" x2="639.3" y2="394.6"/>
	<line class="st0" x1="644.3" y1="394.6" x2="639.3" y2="389.7"/>
	<line class="st0" x1="634.1" y1="384.9" x2="629.3" y2="389.8"/>
	<line class="st0" x1="634.3" y1="389.8" x2="629.3" y2="384.9"/>
	<line class="st0" x1="628.9" y1="384.9" x2="624.1" y2="389.8"/>
	<line class="st0" x1="629.1" y1="389.8" x2="624.1" y2="384.9"/>
	<line class="st0" x1="613" y1="359.3" x2="608.2" y2="364.1"/>
	<line class="st0" x1="613.2" y1="364.1" x2="608.2" y2="359.3"/>
	<line class="st0" x1="623.9" y1="363.2" x2="619.1" y2="368.1"/>
	<line class="st0" x1="624.1" y1="368.1" x2="619.1" y2="363.2"/>
	<line class="st0" x1="618.6" y1="363.2" x2="613.8" y2="368.1"/>
	<line class="st0" x1="618.8" y1="368.1" x2="613.8" y2="363.2"/>
	<line class="st0" x1="628.8" y1="363.2" x2="624.1" y2="368"/>
	<line class="st0" x1="629.1" y1="368" x2="624.1" y2="363.2"/>
	<line class="st0" x1="623.2" y1="358.4" x2="618.4" y2="363.3"/>
	<line class="st0" x1="623.4" y1="363.3" x2="618.4" y2="358.4"/>
	<line class="st0" x1="628.4" y1="354.4" x2="623.7" y2="359.3"/>
	<line class="st0" x1="628.7" y1="359.3" x2="623.7" y2="354.4"/>
	<line class="st0" x1="608" y1="353.5" x2="603.3" y2="358.4"/>
	<line class="st0" x1="608.2" y1="358.4" x2="603.3" y2="353.5"/>
	<line class="st0" x1="623.1" y1="348.7" x2="618.3" y2="353.6"/>
	<line class="st0" x1="623.3" y1="353.6" x2="618.3" y2="348.7"/>
	<line class="st0" x1="613.5" y1="348.7" x2="608.7" y2="353.6"/>
	<line class="st0" x1="613.7" y1="353.6" x2="608.7" y2="348.7"/>
	<line class="st0" x1="618" y1="343.8" x2="613.2" y2="348.7"/>
	<line class="st0" x1="618.2" y1="348.7" x2="613.2" y2="343.8"/>
	<line class="st0" x1="618" y1="338.2" x2="613.2" y2="343"/>
	<line class="st0" x1="618.2" y1="343" x2="613.2" y2="338.2"/>
	<line class="st0" x1="612.8" y1="333.3" x2="608" y2="338.2"/>
	<line class="st0" x1="613" y1="338.2" x2="608" y2="333.3"/>
	<line class="st0" x1="603.5" y1="333.3" x2="598.7" y2="338.2"/>
	<line class="st0" x1="603.7" y1="338.2" x2="598.7" y2="333.3"/>
	<line class="st0" x1="593.6" y1="333.3" x2="588.9" y2="338.2"/>
	<line class="st0" x1="593.8" y1="338.2" x2="588.9" y2="333.3"/>
	<line class="st0" x1="582.6" y1="328.4" x2="577.9" y2="333.3"/>
	<line class="st0" x1="582.9" y1="333.3" x2="577.9" y2="328.4"/>
	<line class="st0" x1="607.9" y1="339.9" x2="603.2" y2="344.8"/>
	<line class="st0" x1="608.1" y1="344.8" x2="603.2" y2="339.9"/>
	<line class="st0" x1="593.7" y1="328.4" x2="589" y2="333.3"/>
	<line class="st0" x1="593.9" y1="333.3" x2="589" y2="328.4"/>
	<line class="st0" x1="612.8" y1="338.9" x2="608" y2="343.8"/>
	<line class="st0" x1="613" y1="343.8" x2="608" y2="338.9"/>
	<line class="st0" x1="612.7" y1="343" x2="607.9" y2="347.9"/>
	<line class="st0" x1="612.9" y1="347.9" x2="607.9" y2="343"/>
	<line class="st0" x1="607.2" y1="343.8" x2="602.4" y2="348.7"/>
	<line class="st0" x1="607.4" y1="348.7" x2="602.4" y2="343.8"/>
	<line class="st0" x1="622.8" y1="328.4" x2="618" y2="333.3"/>
	<line class="st0" x1="623" y1="333.3" x2="618" y2="328.4"/>
	<line class="st0" x1="623.8" y1="318.7" x2="619" y2="323.6"/>
	<line class="st0" x1="624" y1="323.6" x2="619" y2="318.7"/>
	<line class="st0" x1="612.8" y1="319.4" x2="608" y2="324.3"/>
	<line class="st0" x1="613" y1="324.3" x2="608" y2="319.4"/>
	<line class="st0" x1="618.6" y1="319.4" x2="613.8" y2="324.3"/>
	<line class="st0" x1="618.8" y1="324.3" x2="613.8" y2="319.4"/>
	<line class="st0" x1="608.1" y1="318.7" x2="603.4" y2="323.6"/>
	<line class="st0" x1="608.4" y1="323.6" x2="603.4" y2="318.7"/>
	<line class="st0" x1="599" y1="318.3" x2="594.2" y2="323.2"/>
	<line class="st0" x1="599.2" y1="323.2" x2="594.2" y2="318.3"/>
	<line class="st0" x1="588" y1="319.1" x2="583.2" y2="323.9"/>
	<line class="st0" x1="588.2" y1="323.9" x2="583.2" y2="319.1"/>
	<line class="st0" x1="593.8" y1="319.1" x2="589" y2="323.9"/>
	<line class="st0" x1="594" y1="323.9" x2="589" y2="319.1"/>
	<line class="st0" x1="583.3" y1="318.3" x2="578.5" y2="323.2"/>
	<line class="st0" x1="583.5" y1="323.2" x2="578.5" y2="318.3"/>
	<line class="st0" x1="629.1" y1="324.3" x2="624.3" y2="329.2"/>
	<line class="st0" x1="629.3" y1="329.2" x2="624.3" y2="324.3"/>
	<line class="st0" x1="607.8" y1="328.4" x2="603.1" y2="333.3"/>
	<line class="st0" x1="608.1" y1="333.3" x2="603.1" y2="328.4"/>
	<line class="st0" x1="613.6" y1="328.4" x2="608.9" y2="333.3"/>
	<line class="st0" x1="613.8" y1="333.3" x2="608.9" y2="328.4"/>
	<line class="st0" x1="603.2" y1="327.7" x2="598.4" y2="332.5"/>
	<line class="st0" x1="603.4" y1="332.5" x2="598.4" y2="327.7"/>
	<line class="st0" x1="607.6" y1="323.6" x2="602.9" y2="328.4"/>
	<line class="st0" x1="607.8" y1="328.4" x2="602.9" y2="323.6"/>
	<line class="st0" x1="596.7" y1="324.3" x2="591.9" y2="329.2"/>
	<line class="st0" x1="596.9" y1="329.2" x2="591.9" y2="324.3"/>
	<line class="st0" x1="602.4" y1="324.3" x2="597.7" y2="329.2"/>
	<line class="st0" x1="602.6" y1="329.2" x2="597.7" y2="324.3"/>
	<line class="st0" x1="577.5" y1="323.2" x2="572.7" y2="328.1"/>
	<line class="st0" x1="577.7" y1="328.1" x2="572.7" y2="323.2"/>
	<line class="st0" x1="255.7" y1="334.7" x2="250.9" y2="339.6"/>
	<line class="st0" x1="255.9" y1="339.6" x2="250.9" y2="334.7"/>
	<line class="st0" x1="255.5" y1="340.3" x2="250.8" y2="345.2"/>
	<line class="st0" x1="255.8" y1="345.2" x2="250.8" y2="340.3"/>
	<line class="st0" x1="255.7" y1="345.8" x2="250.9" y2="350.6"/>
	<line class="st0" x1="255.9" y1="350.6" x2="250.9" y2="345.8"/>
	<line class="st0" x1="255.6" y1="351.4" x2="250.8" y2="356.3"/>
	<line class="st0" x1="255.8" y1="356.3" x2="250.8" y2="351.4"/>
	<line class="st0" x1="281.1" y1="319.4" x2="276.3" y2="324.2"/>
	<line class="st0" x1="281.3" y1="324.2" x2="276.3" y2="319.4"/>
	<line class="st0" x1="300.4" y1="319.2" x2="295.6" y2="324.1"/>
	<line class="st0" x1="300.6" y1="324.1" x2="295.6" y2="319.2"/>
	<line class="st0" x1="287" y1="319.4" x2="282.3" y2="324.2"/>
	<line class="st0" x1="287.3" y1="324.2" x2="282.3" y2="319.4"/>
	<line class="st0" x1="306.4" y1="319.2" x2="301.6" y2="324.1"/>
	<line class="st0" x1="306.6" y1="324.1" x2="301.6" y2="319.2"/>
	<line class="st0" x1="292.3" y1="319.1" x2="287.6" y2="323.9"/>
	<line class="st0" x1="292.6" y1="323.9" x2="287.6" y2="319.1"/>
	<line class="st0" x1="311.7" y1="318.9" x2="306.9" y2="323.8"/>
	<line class="st0" x1="311.9" y1="323.8" x2="306.9" y2="318.9"/>
	<line class="st0" x1="260.5" y1="340.2" x2="255.7" y2="345.1"/>
	<line class="st0" x1="260.7" y1="345.1" x2="255.7" y2="340.2"/>
	<line class="st0" x1="276" y1="381" x2="271.2" y2="385.8"/>
	<line class="st0" x1="276.2" y1="385.8" x2="271.2" y2="381"/>
	<line class="st0" x1="291.3" y1="340.5" x2="286.5" y2="345.4"/>
	<line class="st0" x1="291.5" y1="345.4" x2="286.5" y2="340.5"/>
	<line class="st0" x1="291.2" y1="346.2" x2="286.4" y2="351"/>
	<line class="st0" x1="291.4" y1="351" x2="286.4" y2="346.2"/>
	<line class="st0" x1="270.9" y1="356.1" x2="266.1" y2="361"/>
	<line class="st0" x1="271.1" y1="361" x2="266.1" y2="356.1"/>
	<line class="st0" x1="265.9" y1="345.8" x2="261.1" y2="350.6"/>
	<line class="st0" x1="266.1" y1="350.6" x2="261.1" y2="345.8"/>
	<line class="st0" x1="281" y1="330.3" x2="276.2" y2="335.2"/>
	<line class="st0" x1="281.2" y1="335.2" x2="276.2" y2="330.3"/>
	<line class="st0" x1="296.2" y1="324.8" x2="291.5" y2="329.7"/>
	<line class="st0" x1="296.5" y1="329.7" x2="291.5" y2="324.8"/>
	<line class="st0" x1="296.4" y1="330.3" x2="291.6" y2="335.2"/>
	<line class="st0" x1="296.6" y1="335.2" x2="291.6" y2="330.3"/>
	<line class="st0" x1="296.3" y1="335.9" x2="291.5" y2="340.8"/>
	<line class="st0" x1="296.5" y1="340.8" x2="291.5" y2="335.9"/>
	<line class="st0" x1="260.4" y1="318.6" x2="255.7" y2="323.5"/>
	<line class="st0" x1="260.6" y1="323.5" x2="255.7" y2="318.6"/>
	<line class="st0" x1="260.3" y1="324.2" x2="255.5" y2="329.1"/>
	<line class="st0" x1="260.5" y1="329.1" x2="255.5" y2="324.2"/>
	<line class="st0" x1="260.5" y1="329.7" x2="255.7" y2="334.5"/>
	<line class="st0" x1="260.7" y1="334.5" x2="255.7" y2="329.7"/>
	<line class="st0" x1="286.1" y1="350.3" x2="281.3" y2="355.2"/>
	<line class="st0" x1="286.3" y1="355.2" x2="281.3" y2="350.3"/>
	<line class="st0" x1="291" y1="355" x2="286.3" y2="359.9"/>
	<line class="st0" x1="291.3" y1="359.9" x2="286.3" y2="355"/>
	<line class="st0" x1="316.4" y1="325.6" x2="311.7" y2="330.5"/>
	<line class="st0" x1="316.6" y1="330.5" x2="311.7" y2="325.6"/>
	<line class="st0" x1="276.1" y1="325.6" x2="271.3" y2="330.5"/>
	<line class="st0" x1="276.3" y1="330.5" x2="271.3" y2="325.6"/>
	<line class="st0" x1="311.1" y1="330.3" x2="306.4" y2="335.2"/>
	<line class="st0" x1="311.3" y1="335.2" x2="306.4" y2="330.3"/>
	<line class="st0" x1="281.1" y1="355" x2="276.3" y2="359.9"/>
	<line class="st0" x1="281.3" y1="359.9" x2="276.3" y2="355"/>
	<line class="st0" x1="265.5" y1="351.4" x2="260.7" y2="356.3"/>
	<line class="st0" x1="265.7" y1="356.3" x2="260.7" y2="351.4"/>
	<line class="st0" x1="265.9" y1="334.7" x2="261.1" y2="339.6"/>
	<line class="st0" x1="266.1" y1="339.6" x2="261.1" y2="334.7"/>
	<line class="st0" x1="265.4" y1="319.4" x2="260.6" y2="324.2"/>
	<line class="st0" x1="265.6" y1="324.2" x2="260.6" y2="319.4"/>
	<line class="st0" x1="255.4" y1="319.4" x2="250.7" y2="324.2"/>
	<line class="st0" x1="255.7" y1="324.2" x2="250.7" y2="319.4"/>
	<line class="st0" x1="260.7" y1="365.6" x2="255.9" y2="370.5"/>
	<line class="st0" x1="260.9" y1="370.5" x2="255.9" y2="365.6"/>
	<line class="st0" x1="270.9" y1="385" x2="266.1" y2="389.8"/>
	<line class="st0" x1="271.1" y1="389.8" x2="266.1" y2="385"/>
	<line class="st0" x1="265.5" y1="379.5" x2="260.7" y2="384.3"/>
	<line class="st0" x1="265.7" y1="384.3" x2="260.7" y2="379.5"/>
	<line class="st0" x1="260.9" y1="376.1" x2="256.2" y2="381"/>
	<line class="st0" x1="261.1" y1="381" x2="256.2" y2="376.1"/>
	<line class="st0" x1="270.9" y1="390.8" x2="266.1" y2="395.7"/>
	<line class="st0" x1="271.1" y1="395.7" x2="266.1" y2="390.8"/>
	<line class="st0" x1="265.5" y1="385.3" x2="260.7" y2="390.2"/>
	<line class="st0" x1="265.7" y1="390.2" x2="260.7" y2="385.3"/>
	<line class="st0" x1="260.9" y1="382" x2="256.2" y2="386.8"/>
	<line class="st0" x1="261.1" y1="386.8" x2="256.2" y2="382"/>
	<line class="st0" x1="270.9" y1="373.9" x2="266.1" y2="378.8"/>
	<line class="st0" x1="271.1" y1="378.8" x2="266.1" y2="373.9"/>
	<line class="st0" x1="265.9" y1="370.7" x2="261.1" y2="375.6"/>
	<line class="st0" x1="266.1" y1="375.6" x2="261.1" y2="370.7"/>
	<line class="st0" x1="260.9" y1="345.6" x2="256.2" y2="350.5"/>
	<line class="st0" x1="261.1" y1="350.5" x2="256.2" y2="345.6"/>
	<line class="st0" x1="270.5" y1="379.8" x2="265.7" y2="384.7"/>
	<line class="st0" x1="270.7" y1="384.7" x2="265.7" y2="379.8"/>
	<line class="st0" x1="260.9" y1="371.2" x2="256.2" y2="376.1"/>
	<line class="st0" x1="261.1" y1="376.1" x2="256.2" y2="371.2"/>
	<line class="st0" x1="265.5" y1="390.6" x2="260.7" y2="395.4"/>
	<line class="st0" x1="265.7" y1="395.4" x2="260.7" y2="390.6"/>
	<line class="st0" x1="265.5" y1="339.7" x2="260.7" y2="344.5"/>
	<line class="st0" x1="265.7" y1="344.5" x2="260.7" y2="339.7"/>
	<line class="st0" x1="286.1" y1="361" x2="281.3" y2="365.8"/>
	<line class="st0" x1="286.3" y1="365.8" x2="281.3" y2="361"/>
	<line class="st0" x1="265.5" y1="359.9" x2="260.7" y2="364.8"/>
	<line class="st0" x1="265.7" y1="364.8" x2="260.7" y2="359.9"/>
	<line class="st0" x1="280.6" y1="367.1" x2="275.9" y2="371.9"/>
	<line class="st0" x1="280.9" y1="371.9" x2="275.9" y2="367.1"/>
	<line class="st0" x1="275.9" y1="375.4" x2="271.1" y2="380.3"/>
	<line class="st0" x1="276.1" y1="380.3" x2="271.1" y2="375.4"/>
	<line class="st0" x1="281.1" y1="372.5" x2="276.3" y2="377.4"/>
	<line class="st0" x1="281.3" y1="377.4" x2="276.3" y2="372.5"/>
	<line class="st0" x1="246.2" y1="325.7" x2="241.4" y2="330.6"/>
	<line class="st0" x1="246.4" y1="330.6" x2="241.4" y2="325.7"/>
	<line class="st0" x1="240.9" y1="330.4" x2="236.1" y2="335.3"/>
	<line class="st0" x1="241.1" y1="335.3" x2="236.1" y2="330.4"/>
	<line class="st0" x1="205.3" y1="319.6" x2="200.6" y2="324.4"/>
	<line class="st0" x1="205.5" y1="324.4" x2="200.6" y2="319.6"/>
	<line class="st0" x1="224.6" y1="319.4" x2="219.9" y2="324.3"/>
	<line class="st0" x1="224.9" y1="324.3" x2="219.9" y2="319.4"/>
	<line class="st0" x1="211.3" y1="319.6" x2="206.5" y2="324.4"/>
	<line class="st0" x1="211.5" y1="324.4" x2="206.5" y2="319.6"/>
	<line class="st0" x1="230.6" y1="319.4" x2="225.8" y2="324.3"/>
	<line class="st0" x1="230.8" y1="324.3" x2="225.8" y2="319.4"/>
	<line class="st0" x1="216.6" y1="319.3" x2="211.8" y2="324.2"/>
	<line class="st0" x1="216.8" y1="324.2" x2="211.8" y2="319.3"/>
	<line class="st0" x1="235.9" y1="319.1" x2="231.1" y2="324"/>
	<line class="st0" x1="236.1" y1="324" x2="231.1" y2="319.1"/>
	<line class="st0" x1="241.2" y1="319.1" x2="236.4" y2="324"/>
	<line class="st0" x1="241.4" y1="324" x2="236.4" y2="319.1"/>
	<line class="st0" x1="199.3" y1="319.4" x2="194.6" y2="324.3"/>
	<line class="st0" x1="199.6" y1="324.3" x2="194.6" y2="319.4"/>
	<line class="st0" x1="195.4" y1="325.6" x2="190.6" y2="330.5"/>
	<line class="st0" x1="195.6" y1="330.5" x2="190.6" y2="325.6"/>
	<line class="st0" x1="200.4" y1="330.4" x2="195.6" y2="335.3"/>
	<line class="st0" x1="200.6" y1="335.3" x2="195.6" y2="330.4"/>
	<line class="st0" x1="216.1" y1="325.1" x2="211.3" y2="330"/>
	<line class="st0" x1="216.3" y1="330" x2="211.3" y2="325.1"/>
	<line class="st0" x1="216.2" y1="330.5" x2="211.5" y2="335.4"/>
	<line class="st0" x1="216.4" y1="335.4" x2="211.5" y2="330.5"/>
	<line class="st0" x1="216.1" y1="336.2" x2="211.4" y2="341"/>
	<line class="st0" x1="216.3" y1="341" x2="211.4" y2="336.2"/>
	<line class="st0" x1="221" y1="325" x2="216.2" y2="329.9"/>
	<line class="st0" x1="221.2" y1="329.9" x2="216.2" y2="325"/>
	<line class="st0" x1="226.4" y1="330.5" x2="221.6" y2="335.4"/>
	<line class="st0" x1="226.6" y1="335.4" x2="221.6" y2="330.5"/>
	<line class="st0" x1="226" y1="336.2" x2="221.2" y2="341"/>
	<line class="st0" x1="226.2" y1="341" x2="221.2" y2="336.2"/>
	<line class="st0" x1="221.4" y1="330.3" x2="216.7" y2="335.2"/>
	<line class="st0" x1="221.6" y1="335.2" x2="216.7" y2="330.3"/>
	<line class="st0" x1="226" y1="324.4" x2="221.2" y2="329.3"/>
	<line class="st0" x1="226.2" y1="329.3" x2="221.2" y2="324.4"/>
	<line class="st0" x1="219.5" y1="340.9" x2="214.7" y2="345.8"/>
	<line class="st0" x1="219.7" y1="345.8" x2="214.7" y2="340.9"/>
	<line class="st0" x1="219.6" y1="346.4" x2="214.9" y2="351.3"/>
	<line class="st0" x1="219.8" y1="351.3" x2="214.9" y2="346.4"/>
	<line class="st0" x1="219.5" y1="352" x2="214.8" y2="356.9"/>
	<line class="st0" x1="219.7" y1="356.9" x2="214.8" y2="352"/>
	<line class="st0" x1="224.4" y1="340.9" x2="219.6" y2="345.7"/>
	<line class="st0" x1="224.6" y1="345.7" x2="219.6" y2="340.9"/>
	<line class="st0" x1="229.8" y1="346.4" x2="225" y2="351.3"/>
	<line class="st0" x1="230" y1="351.3" x2="225" y2="346.4"/>
	<line class="st0" x1="229.4" y1="352" x2="224.6" y2="356.9"/>
	<line class="st0" x1="229.6" y1="356.9" x2="224.6" y2="352"/>
	<line class="st0" x1="224.8" y1="346.2" x2="220.1" y2="351.1"/>
	<line class="st0" x1="225" y1="351.1" x2="220.1" y2="346.2"/>
	<line class="st0" x1="229.4" y1="340.3" x2="224.6" y2="345.2"/>
	<line class="st0" x1="229.6" y1="345.2" x2="224.6" y2="340.3"/>
	<line class="st0" x1="225.3" y1="365.2" x2="220.6" y2="370.1"/>
	<line class="st0" x1="225.5" y1="370.1" x2="220.6" y2="365.2"/>
	<line class="st0" x1="225.5" y1="370.7" x2="220.7" y2="375.6"/>
	<line class="st0" x1="225.7" y1="375.6" x2="220.7" y2="370.7"/>
	<line class="st0" x1="225.4" y1="376.3" x2="220.6" y2="381.2"/>
	<line class="st0" x1="225.6" y1="381.2" x2="220.6" y2="376.3"/>
	<line class="st0" x1="230.2" y1="365.1" x2="225.5" y2="370"/>
	<line class="st0" x1="230.4" y1="370" x2="225.5" y2="365.1"/>
	<line class="st0" x1="235.7" y1="370.7" x2="230.9" y2="375.6"/>
	<line class="st0" x1="235.9" y1="375.6" x2="230.9" y2="370.7"/>
	<line class="st0" x1="235.3" y1="376.3" x2="230.5" y2="381.2"/>
	<line class="st0" x1="235.5" y1="381.2" x2="230.5" y2="376.3"/>
	<line class="st0" x1="230.7" y1="370.5" x2="225.9" y2="375.4"/>
	<line class="st0" x1="230.9" y1="375.4" x2="225.9" y2="370.5"/>
	<line class="st0" x1="235.3" y1="364.6" x2="230.5" y2="369.5"/>
	<line class="st0" x1="235.5" y1="369.5" x2="230.5" y2="364.6"/>
	<line class="st0" x1="230.6" y1="381.9" x2="225.9" y2="386.7"/>
	<line class="st0" x1="230.8" y1="386.7" x2="225.9" y2="381.9"/>
	<line class="st0" x1="230.8" y1="387.3" x2="226" y2="392.2"/>
	<line class="st0" x1="231" y1="392.2" x2="226" y2="387.3"/>
	<line class="st0" x1="230.7" y1="392.9" x2="225.9" y2="397.8"/>
	<line class="st0" x1="230.9" y1="397.8" x2="225.9" y2="392.9"/>
	<line class="st0" x1="235.5" y1="381.8" x2="230.8" y2="386.6"/>
	<line class="st0" x1="235.7" y1="386.6" x2="230.8" y2="381.8"/>
	<line class="st0" x1="241" y1="387.3" x2="236.2" y2="392.2"/>
	<line class="st0" x1="241.2" y1="392.2" x2="236.2" y2="387.3"/>
	<line class="st0" x1="235.7" y1="392.3" x2="230.9" y2="397.2"/>
	<line class="st0" x1="235.9" y1="397.2" x2="230.9" y2="392.3"/>
	<line class="st0" x1="236" y1="387.1" x2="231.2" y2="392"/>
	<line class="st0" x1="236.2" y1="392" x2="231.2" y2="387.1"/>
	<line class="st0" x1="240.6" y1="381.2" x2="235.8" y2="386.1"/>
	<line class="st0" x1="240.8" y1="386.1" x2="235.8" y2="381.2"/>
	<line class="st0" x1="225.5" y1="381" x2="220.7" y2="385.8"/>
	<line class="st0" x1="225.7" y1="385.8" x2="220.7" y2="381"/>
	<line class="st0" x1="219.8" y1="361.6" x2="215.1" y2="366.5"/>
	<line class="st0" x1="220" y1="366.5" x2="215.1" y2="361.6"/>
	<line class="st0" x1="214.4" y1="356.9" x2="209.7" y2="361.8"/>
	<line class="st0" x1="214.7" y1="361.8" x2="209.7" y2="356.9"/>
	<line class="st0" x1="255.9" y1="360.9" x2="251.1" y2="365.7"/>
	<line class="st0" x1="256.1" y1="365.7" x2="251.1" y2="360.9"/>
	<line class="st0" x1="250.5" y1="356.2" x2="245.8" y2="361.1"/>
	<line class="st0" x1="250.7" y1="361.1" x2="245.8" y2="356.2"/>
	<line class="st0" x1="250.5" y1="369.5" x2="245.8" y2="374.4"/>
	<line class="st0" x1="250.7" y1="374.4" x2="245.8" y2="369.5"/>
	<line class="st0" x1="250.3" y1="362.9" x2="245.5" y2="367.8"/>
	<line class="st0" x1="250.5" y1="367.8" x2="245.5" y2="362.9"/>
	<line class="st0" x1="246.1" y1="375.4" x2="241.3" y2="380.3"/>
	<line class="st0" x1="246.3" y1="380.3" x2="241.3" y2="375.4"/>
	<line class="st0" x1="230.2" y1="359.1" x2="225.5" y2="364"/>
	<line class="st0" x1="230.4" y1="364" x2="225.5" y2="359.1"/>
	<line class="st0" x1="236" y1="346.2" x2="231.2" y2="351"/>
	<line class="st0" x1="236.2" y1="351" x2="231.2" y2="346.2"/>
	<line class="st0" x1="235.4" y1="356.1" x2="230.6" y2="361"/>
	<line class="st0" x1="235.6" y1="361" x2="230.6" y2="356.1"/>
	<line class="st0" x1="335" y1="330.7" x2="330.2" y2="335.6"/>
	<line class="st0" x1="335.2" y1="335.6" x2="330.2" y2="330.7"/>
	<line class="st0" x1="330" y1="325.1" x2="325.2" y2="330"/>
	<line class="st0" x1="330.2" y1="330" x2="325.2" y2="325.1"/>
	<line class="st0" x1="335" y1="320.3" x2="330.2" y2="325.1"/>
	<line class="st0" x1="335.2" y1="325.1" x2="330.2" y2="320.3"/>
	<line class="st0" x1="340.6" y1="320.3" x2="335.8" y2="325.1"/>
	<line class="st0" x1="340.8" y1="325.1" x2="335.8" y2="320.3"/>
	<line class="st0" x1="345.5" y1="320.3" x2="340.8" y2="325.1"/>
	<line class="st0" x1="345.8" y1="325.1" x2="340.8" y2="320.3"/>
	<line class="st0" x1="345.4" y1="325.1" x2="340.7" y2="330"/>
	<line class="st0" x1="345.6" y1="330" x2="340.7" y2="325.1"/>
	<line class="st0" x1="355.2" y1="320.3" x2="350.4" y2="325.1"/>
	<line class="st0" x1="355.4" y1="325.1" x2="350.4" y2="320.3"/>
	<line class="st0" x1="360.8" y1="320.3" x2="356" y2="325.1"/>
	<line class="st0" x1="361" y1="325.1" x2="356" y2="320.3"/>
	<line class="st0" x1="365.8" y1="320.3" x2="361" y2="325.1"/>
	<line class="st0" x1="366" y1="325.1" x2="361" y2="320.3"/>
	<line class="st0" x1="345.3" y1="330" x2="340.6" y2="334.9"/>
	<line class="st0" x1="345.5" y1="334.9" x2="340.6" y2="330"/>
	<line class="st0" x1="350.9" y1="330" x2="346.2" y2="334.9"/>
	<line class="st0" x1="351.1" y1="334.9" x2="346.2" y2="330"/>
	<line class="st0" x1="355.9" y1="330" x2="351.1" y2="334.9"/>
	<line class="st0" x1="356.1" y1="334.9" x2="351.1" y2="330"/>
	<line class="st0" x1="345.3" y1="340.7" x2="340.6" y2="345.6"/>
	<line class="st0" x1="345.5" y1="345.6" x2="340.6" y2="340.7"/>
	<line class="st0" x1="350.9" y1="340.7" x2="346.2" y2="345.6"/>
	<line class="st0" x1="351.1" y1="345.6" x2="346.2" y2="340.7"/>
	<line class="st0" x1="355.9" y1="340.7" x2="351.1" y2="345.6"/>
	<line class="st0" x1="356.1" y1="345.6" x2="351.1" y2="340.7"/>
	<line class="st0" x1="345.5" y1="345.6" x2="340.8" y2="350.5"/>
	<line class="st0" x1="345.7" y1="350.5" x2="340.8" y2="345.6"/>
	<line class="st0" x1="351.1" y1="345.6" x2="346.4" y2="350.5"/>
	<line class="st0" x1="351.3" y1="350.5" x2="346.4" y2="345.6"/>
	<line class="st0" x1="356.1" y1="345.6" x2="351.3" y2="350.5"/>
	<line class="st0" x1="356.3" y1="350.5" x2="351.3" y2="345.6"/>
	<line class="st0" x1="345.4" y1="365.6" x2="340.7" y2="370.4"/>
	<line class="st0" x1="345.6" y1="370.4" x2="340.7" y2="365.6"/>
	<line class="st0" x1="351" y1="365.6" x2="346.3" y2="370.4"/>
	<line class="st0" x1="351.2" y1="370.4" x2="346.3" y2="365.6"/>
	<line class="st0" x1="356" y1="365.6" x2="351.2" y2="370.4"/>
	<line class="st0" x1="356.2" y1="370.4" x2="351.2" y2="365.6"/>
	<line class="st0" x1="345.6" y1="370.4" x2="340.9" y2="375.3"/>
	<line class="st0" x1="345.8" y1="375.3" x2="340.9" y2="370.4"/>
	<line class="st0" x1="351.2" y1="370.4" x2="346.5" y2="375.3"/>
	<line class="st0" x1="351.4" y1="375.3" x2="346.5" y2="370.4"/>
	<line class="st0" x1="356.2" y1="370.4" x2="351.5" y2="375.3"/>
	<line class="st0" x1="356.4" y1="375.3" x2="351.5" y2="370.4"/>
	<line class="st0" x1="344.4" y1="381.1" x2="339.6" y2="386"/>
	<line class="st0" x1="344.6" y1="386" x2="339.6" y2="381.1"/>
	<line class="st0" x1="350" y1="381.1" x2="345.2" y2="386"/>
	<line class="st0" x1="350.2" y1="386" x2="345.2" y2="381.1"/>
	<line class="st0" x1="355" y1="381.1" x2="350.2" y2="386"/>
	<line class="st0" x1="355.2" y1="386" x2="350.2" y2="381.1"/>
	<line class="st0" x1="344.6" y1="386" x2="339.8" y2="390.9"/>
	<line class="st0" x1="344.8" y1="390.9" x2="339.8" y2="386"/>
	<line class="st0" x1="350.2" y1="386" x2="345.4" y2="390.9"/>
	<line class="st0" x1="350.4" y1="390.9" x2="345.4" y2="386"/>
	<line class="st0" x1="355.2" y1="386" x2="350.4" y2="390.9"/>
	<line class="st0" x1="355.4" y1="390.9" x2="350.4" y2="386"/>
	<line class="st0" x1="345.2" y1="335.6" x2="340.4" y2="340.5"/>
	<line class="st0" x1="345.4" y1="340.5" x2="340.4" y2="335.6"/>
	<line class="st0" x1="355.9" y1="334.9" x2="351.1" y2="339.7"/>
	<line class="st0" x1="356.1" y1="339.7" x2="351.1" y2="334.9"/>
	<line class="st0" x1="355.8" y1="325.1" x2="351" y2="330"/>
	<line class="st0" x1="356" y1="330" x2="351" y2="325.1"/>
	<line class="st0" x1="350.8" y1="325.1" x2="346.1" y2="330"/>
	<line class="st0" x1="351" y1="330" x2="346.1" y2="325.1"/>
	<line class="st0" x1="370.5" y1="325.9" x2="365.8" y2="330.7"/>
	<line class="st0" x1="370.7" y1="330.7" x2="365.8" y2="325.9"/>
	<line class="st0" x1="360.7" y1="356.2" x2="355.9" y2="361.1"/>
	<line class="st0" x1="360.9" y1="361.1" x2="355.9" y2="356.2"/>
	<line class="st0" x1="339.7" y1="356.2" x2="335" y2="361.1"/>
	<line class="st0" x1="339.9" y1="361.1" x2="335" y2="356.2"/>
	<line class="st0" x1="345.4" y1="351.2" x2="340.6" y2="356.1"/>
	<line class="st0" x1="345.6" y1="356.1" x2="340.6" y2="351.2"/>
	<line class="st0" x1="356.1" y1="350.5" x2="351.3" y2="355.4"/>
	<line class="st0" x1="356.3" y1="355.4" x2="351.3" y2="350.5"/>
	<line class="st0" x1="344.6" y1="375.4" x2="339.8" y2="380.3"/>
	<line class="st0" x1="344.8" y1="380.3" x2="339.8" y2="375.4"/>
	<line class="st0" x1="355.2" y1="376.2" x2="350.4" y2="381.1"/>
	<line class="st0" x1="355.4" y1="381.1" x2="350.4" y2="376.2"/>
	<line class="st0" x1="345.4" y1="360.8" x2="340.6" y2="365.7"/>
	<line class="st0" x1="345.6" y1="365.7" x2="340.6" y2="360.8"/>
	<line class="st0" x1="355.2" y1="360.8" x2="350.4" y2="365.7"/>
	<line class="st0" x1="355.4" y1="365.7" x2="350.4" y2="360.8"/>
	<line class="st0" x1="334.4" y1="390.9" x2="329.7" y2="395.7"/>
	<line class="st0" x1="334.6" y1="395.7" x2="329.7" y2="390.9"/>
	<line class="st0" x1="340" y1="390.9" x2="335.3" y2="395.7"/>
	<line class="st0" x1="340.2" y1="395.7" x2="335.3" y2="390.9"/>
	<line class="st0" x1="345" y1="390.9" x2="340.2" y2="395.7"/>
	<line class="st0" x1="345.2" y1="395.7" x2="340.2" y2="390.9"/>
	<line class="st0" x1="356.2" y1="390.9" x2="351.5" y2="395.7"/>
	<line class="st0" x1="356.4" y1="395.7" x2="351.5" y2="390.9"/>
	<line class="st0" x1="361.8" y1="390.9" x2="357.1" y2="395.7"/>
	<line class="st0" x1="362" y1="395.7" x2="357.1" y2="390.9"/>
	<line class="st0" x1="366.8" y1="390.9" x2="362" y2="395.7"/>
	<line class="st0" x1="367" y1="395.7" x2="362" y2="390.9"/>
	<line class="st0" x1="329.1" y1="385.2" x2="324.4" y2="390"/>
	<line class="st0" x1="329.3" y1="390" x2="324.4" y2="385.2"/>
	<line class="st0" x1="335" y1="380.3" x2="330.2" y2="385.2"/>
	<line class="st0" x1="335.2" y1="385.2" x2="330.2" y2="380.3"/>
	<line class="st0" x1="370.7" y1="386" x2="366" y2="390.9"/>
	<line class="st0" x1="371" y1="390.9" x2="366" y2="386"/>
	<line class="st0" x1="364.3" y1="380.3" x2="359.5" y2="385.2"/>
	<line class="st0" x1="364.5" y1="385.2" x2="359.5" y2="380.3"/>
	<line class="st0" x1="365.7" y1="330.7" x2="360.9" y2="335.6"/>
	<line class="st0" x1="365.9" y1="335.6" x2="360.9" y2="330.7"/>
	<line class="st0" x1="393" y1="330.6" x2="388.2" y2="335.5"/>
	<line class="st0" x1="393.2" y1="335.5" x2="388.2" y2="330.6"/>
	<line class="st0" x1="388" y1="325" x2="383.2" y2="329.9"/>
	<line class="st0" x1="388.2" y1="329.9" x2="383.2" y2="325"/>
	<line class="st0" x1="393" y1="320.1" x2="388.2" y2="325"/>
	<line class="st0" x1="393.2" y1="325" x2="388.2" y2="320.1"/>
	<line class="st0" x1="398.6" y1="320.1" x2="393.8" y2="325"/>
	<line class="st0" x1="398.8" y1="325" x2="393.8" y2="320.1"/>
	<line class="st0" x1="403.6" y1="320.1" x2="398.8" y2="325"/>
	<line class="st0" x1="403.8" y1="325" x2="398.8" y2="320.1"/>
	<line class="st0" x1="403.5" y1="325" x2="398.7" y2="329.9"/>
	<line class="st0" x1="403.7" y1="329.9" x2="398.7" y2="325"/>
	<line class="st0" x1="413.2" y1="320.1" x2="408.4" y2="325"/>
	<line class="st0" x1="413.4" y1="325" x2="408.4" y2="320.1"/>
	<line class="st0" x1="418.8" y1="320.1" x2="414" y2="325"/>
	<line class="st0" x1="419" y1="325" x2="414" y2="320.1"/>
	<line class="st0" x1="423.8" y1="320.1" x2="419" y2="325"/>
	<line class="st0" x1="424" y1="325" x2="419" y2="320.1"/>
	<line class="st0" x1="403.3" y1="329.9" x2="398.6" y2="334.8"/>
	<line class="st0" x1="403.6" y1="334.8" x2="398.6" y2="329.9"/>
	<line class="st0" x1="408.9" y1="329.9" x2="404.2" y2="334.8"/>
	<line class="st0" x1="409.2" y1="334.8" x2="404.2" y2="329.9"/>
	<line class="st0" x1="413.9" y1="329.9" x2="409.2" y2="334.8"/>
	<line class="st0" x1="414.1" y1="334.8" x2="409.2" y2="329.9"/>
	<line class="st0" x1="403.3" y1="340.6" x2="398.6" y2="345.5"/>
	<line class="st0" x1="403.6" y1="345.5" x2="398.6" y2="340.6"/>
	<line class="st0" x1="408.9" y1="340.6" x2="404.2" y2="345.5"/>
	<line class="st0" x1="409.2" y1="345.5" x2="404.2" y2="340.6"/>
	<line class="st0" x1="413.9" y1="340.6" x2="409.2" y2="345.5"/>
	<line class="st0" x1="414.1" y1="345.5" x2="409.2" y2="340.6"/>
	<line class="st0" x1="403.6" y1="345.5" x2="398.8" y2="350.4"/>
	<line class="st0" x1="403.8" y1="350.4" x2="398.8" y2="345.5"/>
	<line class="st0" x1="409.2" y1="345.5" x2="404.4" y2="350.4"/>
	<line class="st0" x1="409.4" y1="350.4" x2="404.4" y2="345.5"/>
	<line class="st0" x1="414.1" y1="345.5" x2="409.4" y2="350.4"/>
	<line class="st0" x1="414.4" y1="350.4" x2="409.4" y2="345.5"/>
	<line class="st0" x1="403.4" y1="365.4" x2="398.7" y2="370.3"/>
	<line class="st0" x1="403.7" y1="370.3" x2="398.7" y2="365.4"/>
	<line class="st0" x1="409.1" y1="365.4" x2="404.3" y2="370.3"/>
	<line class="st0" x1="409.3" y1="370.3" x2="404.3" y2="365.4"/>
	<line class="st0" x1="414" y1="365.4" x2="409.3" y2="370.3"/>
	<line class="st0" x1="414.2" y1="370.3" x2="409.3" y2="365.4"/>
	<line class="st0" x1="403.7" y1="370.3" x2="398.9" y2="375.2"/>
	<line class="st0" x1="403.9" y1="375.2" x2="398.9" y2="370.3"/>
	<line class="st0" x1="409.3" y1="370.3" x2="404.5" y2="375.2"/>
	<line class="st0" x1="409.5" y1="375.2" x2="404.5" y2="370.3"/>
	<line class="st0" x1="414.2" y1="370.3" x2="409.5" y2="375.2"/>
	<line class="st0" x1="414.5" y1="375.2" x2="409.5" y2="370.3"/>
	<line class="st0" x1="402.4" y1="381" x2="397.6" y2="385.9"/>
	<line class="st0" x1="402.6" y1="385.9" x2="397.6" y2="381"/>
	<line class="st0" x1="408" y1="381" x2="403.2" y2="385.9"/>
	<line class="st0" x1="408.2" y1="385.9" x2="403.2" y2="381"/>
	<line class="st0" x1="413" y1="381" x2="408.2" y2="385.9"/>
	<line class="st0" x1="413.2" y1="385.9" x2="408.2" y2="381"/>
	<line class="st0" x1="402.6" y1="385.9" x2="397.9" y2="390.7"/>
	<line class="st0" x1="402.8" y1="390.7" x2="397.9" y2="385.9"/>
	<line class="st0" x1="408.2" y1="385.9" x2="403.5" y2="390.7"/>
	<line class="st0" x1="408.4" y1="390.7" x2="403.5" y2="385.9"/>
	<line class="st0" x1="413.2" y1="385.9" x2="408.4" y2="390.7"/>
	<line class="st0" x1="413.4" y1="390.7" x2="408.4" y2="385.9"/>
	<line class="st0" x1="403.2" y1="335.5" x2="398.5" y2="340.4"/>
	<line class="st0" x1="403.5" y1="340.4" x2="398.5" y2="335.5"/>
	<line class="st0" x1="413.9" y1="334.8" x2="409.2" y2="339.6"/>
	<line class="st0" x1="414.1" y1="339.6" x2="409.2" y2="334.8"/>
	<line class="st0" x1="413.8" y1="325" x2="409" y2="329.9"/>
	<line class="st0" x1="414" y1="329.9" x2="409" y2="325"/>
	<line class="st0" x1="408.8" y1="325" x2="404.1" y2="329.9"/>
	<line class="st0" x1="409.1" y1="329.9" x2="404.1" y2="325"/>
	<line class="st0" x1="428.6" y1="325.7" x2="423.8" y2="330.6"/>
	<line class="st0" x1="428.8" y1="330.6" x2="423.8" y2="325.7"/>
	<line class="st0" x1="418.7" y1="356.1" x2="413.9" y2="360.9"/>
	<line class="st0" x1="418.9" y1="360.9" x2="413.9" y2="356.1"/>
	<line class="st0" x1="397.7" y1="356.1" x2="393" y2="360.9"/>
	<line class="st0" x1="398" y1="360.9" x2="393" y2="356.1"/>
	<line class="st0" x1="403.4" y1="351.1" x2="398.6" y2="356"/>
	<line class="st0" x1="403.6" y1="356" x2="398.6" y2="351.1"/>
	<line class="st0" x1="414.1" y1="350.4" x2="409.3" y2="355.2"/>
	<line class="st0" x1="414.3" y1="355.2" x2="409.3" y2="350.4"/>
	<line class="st0" x1="402.6" y1="375.3" x2="397.9" y2="380.2"/>
	<line class="st0" x1="402.8" y1="380.2" x2="397.9" y2="375.3"/>
	<line class="st0" x1="413.2" y1="376.1" x2="408.4" y2="381"/>
	<line class="st0" x1="413.4" y1="381" x2="408.4" y2="376.1"/>
	<line class="st0" x1="403.4" y1="360.7" x2="398.6" y2="365.6"/>
	<line class="st0" x1="403.6" y1="365.6" x2="398.6" y2="360.7"/>
	<line class="st0" x1="413.2" y1="360.7" x2="408.4" y2="365.6"/>
	<line class="st0" x1="413.4" y1="365.6" x2="408.4" y2="360.7"/>
	<line class="st0" x1="392.4" y1="390.7" x2="387.7" y2="395.6"/>
	<line class="st0" x1="392.7" y1="395.6" x2="387.7" y2="390.7"/>
	<line class="st0" x1="398.1" y1="390.7" x2="393.3" y2="395.6"/>
	<line class="st0" x1="398.3" y1="395.6" x2="393.3" y2="390.7"/>
	<line class="st0" x1="403" y1="390.7" x2="398.3" y2="395.6"/>
	<line class="st0" x1="403.2" y1="395.6" x2="398.3" y2="390.7"/>
	<line class="st0" x1="414.2" y1="390.7" x2="409.5" y2="395.6"/>
	<line class="st0" x1="414.5" y1="395.6" x2="409.5" y2="390.7"/>
	<line class="st0" x1="419.8" y1="390.7" x2="415.1" y2="395.6"/>
	<line class="st0" x1="420.1" y1="395.6" x2="415.1" y2="390.7"/>
	<line class="st0" x1="424.8" y1="390.7" x2="420.1" y2="395.6"/>
	<line class="st0" x1="425" y1="395.6" x2="420.1" y2="390.7"/>
	<line class="st0" x1="387.2" y1="385" x2="382.4" y2="389.9"/>
	<line class="st0" x1="387.4" y1="389.9" x2="382.4" y2="385"/>
	<line class="st0" x1="393" y1="380.2" x2="388.2" y2="385"/>
	<line class="st0" x1="393.2" y1="385" x2="388.2" y2="380.2"/>
	<line class="st0" x1="428.8" y1="385.9" x2="424" y2="390.7"/>
	<line class="st0" x1="429" y1="390.7" x2="424" y2="385.9"/>
	<line class="st0" x1="438" y1="376.1" x2="433.2" y2="381"/>
	<line class="st0" x1="438.2" y1="381" x2="433.2" y2="376.1"/>
	<line class="st0" x1="423.7" y1="330.6" x2="418.9" y2="335.5"/>
	<line class="st0" x1="423.9" y1="335.5" x2="418.9" y2="330.6"/>
	<line class="st0" x1="433.1" y1="390.7" x2="428.3" y2="395.6"/>
	<line class="st0" x1="433.3" y1="395.6" x2="428.3" y2="390.7"/>
	<line class="st0" x1="438.7" y1="390.7" x2="433.9" y2="395.6"/>
	<line class="st0" x1="438.9" y1="395.6" x2="433.9" y2="390.7"/>
	<line class="st0" x1="443.7" y1="390.7" x2="438.9" y2="395.6"/>
	<line class="st0" x1="443.9" y1="395.6" x2="438.9" y2="390.7"/>
	<line class="st0" x1="452.8" y1="360.1" x2="448" y2="355.3"/>
	<line class="st0" x1="448" y1="360.3" x2="452.8" y2="355.3"/>
	<line class="st0" x1="452.8" y1="365.7" x2="448" y2="360.9"/>
	<line class="st0" x1="448" y1="365.9" x2="452.8" y2="360.9"/>
	<line class="st0" x1="452.8" y1="370.7" x2="448" y2="365.9"/>
	<line class="st0" x1="448" y1="370.9" x2="452.8" y2="365.9"/>
	<line class="st0" x1="452.8" y1="375.5" x2="448" y2="370.8"/>
	<line class="st0" x1="448" y1="375.7" x2="452.8" y2="370.8"/>
	<line class="st0" x1="452.8" y1="381.1" x2="448" y2="376.4"/>
	<line class="st0" x1="448" y1="381.4" x2="452.8" y2="376.4"/>
	<line class="st0" x1="452.8" y1="386.1" x2="448" y2="381.4"/>
	<line class="st0" x1="448" y1="386.3" x2="452.8" y2="381.4"/>
	<line class="st0" x1="452.8" y1="391.1" x2="448" y2="386.3"/>
	<line class="st0" x1="448" y1="391.3" x2="452.8" y2="386.3"/>
	<line class="st0" x1="452.8" y1="396.7" x2="448" y2="391.9"/>
	<line class="st0" x1="448" y1="396.9" x2="452.8" y2="391.9"/>
	<line class="st0" x1="448.6" y1="390.6" x2="443.7" y2="385.8"/>
	<line class="st0" x1="443.7" y1="390.8" x2="448.6" y2="385.8"/>
	<line class="st0" x1="444.1" y1="389.2" x2="439.3" y2="384.5"/>
	<line class="st0" x1="439.3" y1="389.4" x2="444.1" y2="384.5"/>
	<line class="st0" x1="447.2" y1="370.2" x2="442.4" y2="365.4"/>
	<line class="st0" x1="442.4" y1="370.4" x2="447.2" y2="365.4"/>
	<line class="st0" x1="443.6" y1="375.5" x2="438.7" y2="370.8"/>
	<line class="st0" x1="438.7" y1="375.7" x2="443.6" y2="370.8"/>
	<line class="st0" x1="443.8" y1="383.3" x2="438.9" y2="378.5"/>
	<line class="st0" x1="438.9" y1="383.5" x2="443.8" y2="378.5"/>
	<path class="st1" d="M422.2,193.4c-0.1-1.2-0.2-2.4-0.3-3.7l-0.2-1.4l0-1.3l0.4-1l0.5-1l0.5-0.4l1-0.5l0.8,0.2l1.3,0.2l1-0.3
		l0.9-0.5l1.3-0.4l0.5-0.4l0.6-1l-0.3-1.2l-1.2-0.5l-1.1-0.6l-0.4-0.2l-1.3-0.1l-1.1,0.8l-0.6-0.4l0.2-1.1l0.6-1.1l0.5-0.9l0.6-1
		l0.5-1.2l0.5-1l0.7-0.9l0.5-1.1l0.3-0.5l0.9-1l1.4-0.3h0.6l1-0.2l0.5-0.3l0.4-0.4l0.8-0.9l1.2-0.6l0.7-0.1l1.2-0.5l0.5-1.5l0.1-0.8
		l0.8-0.3l1.3,0.1l0.8-0.8l0.3-1.5l0.4-0.5l0-1.3l0-0.5l0.3-0.9l0.6-0.2l0.6-0.5l0.9-0.7l0.6-1l-0.3-1.2l-0.3-0.5l-1,0.1l-0.7,0.1
		l-1.1,0.2l-0.7,0l-0.7-0.1l-1.1-0.4l-0.5-0.4l-0.6-0.4l-0.8,0.2l-0.9,0.7l-0.7,0l-1.2,0.6l-0.5,0.4l-1.1,0.6l-0.9,0.7l-1.2,0.7
		l-1.2,0.9l-0.6,1.1l0,1.2l0,0.5l0.1,1.2l0.3,0.5l0.4,1.3l0.2,0.4l0.2,0.6l-0.3,0.8l-0.4,0.6l-1-0.2L428,166l-1.1-0.9l-0.4-0.2
		l-0.4-0.5l-1-0.1l-0.4,0.8l0.3,0.9l0,1.2l0.2,0.6l0,0.7l0,1.2l-0.2,0.6l-0.2,0.4l0.2,1.4l0.8,1.8l-0.2,0.7l-0.2,0.6l-0.5,0.9
		l-0.6,0.8l-0.6,1.1L423,179l-0.4,0.9l-0.5,1l-0.5,1.2l-0.1,0.2l0-0.1l-0.4-5.4l-0.5-0.1l-0.6-2.3l-0.4-1.3l-0.4-1l-0.3-0.9
		l-0.5-1.1l-0.5-1.2l-0.6-0.9l-0.4-1l-0.1-0.6l-0.2-0.7l0.9-1.7l0.3-1.3l-0.1-0.4l-0.1-0.6l0.1-1.2l0-0.7l0.2-0.5l0.1-1.2l0.4-0.8
		l-0.3-0.8h-1l-0.5,0.5l-0.4,0.1l-1.2,0.8l-0.4,0.4l-1,0.1l-0.3-0.6l-0.2-0.8l0.2-0.6l0.2-0.4l0.5-1.3l0.3-0.5l0.2-1.2l0-0.5
		l0.1-1.2l-0.5-1.2l-1.1-1l-1.1-0.8l-0.9-0.8l-1-0.7l-0.4-0.4l-1.1-0.7l-0.7-0.1l-0.9-0.8l-0.8-0.3l-0.7,0.4l-0.5,0.4l-1.2,0.3
		l-0.7,0.1l-0.7,0l-1.1-0.3l-0.7-0.2l-1-0.2l-0.3,0.5l-0.4,1.2l0.5,1l0.9,0.8l0.5,0.6l0.6,0.2l0.2,1l0,0.5l-0.1,1.3l0.4,0.5l0.2,1.5
		l0.7,0.9l1.3,0l0.8,0.3l0,0.8l0.4,1.5l1.1,0.6l0.7,0.2l1.1,0.7l0.7,0.9l0.3,0.5l0.5,0.3l0.9,0.3l0.6,0.1l1.4,0.4l0.8,1.1l0.3,0.5
		l0.4,1.1l0.6,1l0.4,1.1l0.4,1.3l0.5,1l0.4,1l0.5,1.1l0.1,1.1l-0.7,0.4l-1-0.9l-1.3,0l-0.4,0.2l-1.2,0.5l-1.2,0.4l-0.4,1.2l0.5,1
		l0.5,0.5l1.3,0.5l0.8,0.5l1,0.4l1.4-0.1l0.8-0.1l1,0.6l0.5,0.5l0.4,1.1l0.3,1l-0.1,1.3l-0.3,1.3l0,0.9l0.6,0.7l0.1,0.1l0,0.1
		l-0.8,0.6l0,1l-0.4,0.4l0,0.9l0.3,0.4l0.5,0.4l0.7,0.9c0,0,0.4,1.1,0.4,1.2"/>
	<path class="st1" d="M422.2,193.3l-0.1-0.1l0-0.2l0-0.1l-0.2-0.1l-0.2,0.1l-0.1,0.1l0.1,0.2l0,0.1"/>
	<path class="st1" d="M421,249.8l-0.2-0.3l-0.1,0.3L421,249.8z"/>
	<path class="st1" d="M415,273.6l0.1-0.8l0.1-3.8l-0.2-1.5l0.5-1.6l-0.1-1.6l-0.1-1.8l0.3-1.8l0.1-4.7l1.1-1.4l0.2,1.7l0.3,2.1
		l0.1,1.3l0,2.1l0.2,1.5l-0.3,3.5l0,1.9l0.1,1.6l0.1,1.8l0,1.5h1.2l0.2-3.3l0-1.6l0.2-3.4l0.1-1.5l0.1-3.3l-0.3-2.1l0.4-1.5l0.5-1.8
		l0.9,0.2l0,1.7l0.1,1.6l0,1.9l0.1,1.8l-0.1,1.7l0.2,1.7l-0.3,1.9l0.2,1.4l0.2,1.9l-0.4,1.9l0.1,0.8h1.3l0.2-2.5l0.1-3.5l-0.1-1.8
		l0-1.7l0.3-1.6l0.1-3.3l0.1-2l0.4-1.5l0.9,2.1l0,3.1l0.1,1.3l0,2.1l0.4,1.5l-0.2,1.8l-0.1,1.5l0.2,1.7l-0.5,1.6l0.3,1.2h1.5
		l0.1-0.3l-0.2-1.9l0.1-1.7l0-1.2l0.3-1.6l0-2.1l0.3-1.4l-0.3-1.8l0.4-1.5l0.1-1.7l-0.1-3.4l0-1.4l-0.1-1.6l-0.5-1.9l-1.4-3.1
		l-1-1.5l-1.2-2.9l-0.4-2.4l-0.1-1.8l0.3-1.8l0-1.4l-0.1-1.8l0.1-3.8l0.4-1.5l-0.3-1.8l0.3-1.6l0-1.6l-0.3-3.5l0.3-1.6l0.4-1.5
		l0-1.4l0.5-1.6l0.1-1.5l0.1-3.3l0.3-1.6l0.2-1.8l0.1-1.3l0.2-3.4l0.2-2l0.1-1.3l-0.3-1.8l0.2-1.4l-0.2-1.7l0.1-1.7l-0.1-3.2l0-1.4
		l-0.3-1.6l-0.1-3.2l-1.2-2.5l-2.5-0.7l-1.7,2.5l-0.1,1.3l-0.1,1.7l0.1,1.3l-0.6,1.4l0.1,3.4l-0.3,1.4l0.1,1.8l0.4,1.5l-0.4,1.7
		l0.2,1.5l0,1.6l0.1,3.2l0,1.4l0.3,2.1l-0.3,1.6l0.3,3.2l0.2,1.7l0.3,1.6l0,1.4l0.4,3.4l-0.5,3.2l0.3,1.8l-0.3,3.5l0.1,1.5l0.2,1.9
		l-0.2,1.8l-0.1,3.5l-0.1,1.3l0.1,1.8l-0.4,2.9l-1.4,2.1l-1.3,1.1l-1.1,2.8l-0.5,1.6l-0.3,1.4l-0.4,1.7l0.3,3.2l-0.3,1.6l0.3,1.6
		l-0.1,2l0.1,1.6l0.1,1.8l0.1,1.6l0,1.7l0.3,1.8l-0.1,1.3l0.1,1.8l0,0.9L415,273.6L415,273.6z M420.4,190.2l0-0.5l0.2-0.4l0.2,0.5
		l0,0.5l-0.1,0.1L420.4,190.2z M419.8,198.1l-0.1-0.6l-0.3-0.6l0.2-0.4l0.4-0.1l0.2,0.5l0.2,0.7l-0.4,0.5L419.8,198.1z M421.6,200.8
		l0.3,0.4l-0.4,0.3l-0.3-0.4l-0.1-0.6L421.6,200.8z M419.2,201l0.2-0.4l0.3-0.1l0.1,0.1l0,0.7l-0.6,0.2L419.2,201z M419.9,206.4
		l0-0.2l0.1-0.3l0.2,0l0.3,0.2l0,0.2l-0.4,0.3L419.9,206.4z M421.7,210l0-0.5l0.2-0.2l0.2,0.3l0,0.2l-0.4,0.3L421.7,210z
		 M419.5,213.4l0-0.5l0.2-0.2l0.1,0.1l0.2,0.5l-0.4,0.5L419.5,213.4z M419.7,238.6l-0.2-0.3l0.2,0l0.3,0.2l0.1,0.1L419.7,238.6z
		 M419.9,241.7l0.2-0.2l0.2,0.3l0,0.2l-0.1,0.1L419.9,241.7z M419,243.6l0.1-0.3l0.2,0l-0.2,0.4L419,243.6z M421,243.8l0.3,0.2
		l-0.1,0.1L421,243.8z M419.1,251.4l0,0.2l-0.1-0.1l-0.1,0.1l0.4,0.2l0.2,0.1l-0.6,0.5l-0.4,0.1l0-0.5l0.4-0.3l-0.1-0.1l0.1-0.3
		L419.1,251.4z M418.5,250.7l-0.1-0.1l-0.1-0.4l0-0.5l0.5,0.1l0.1-0.1l0.1,0.1l0.3,0.9l-0.2,0L418.5,250.7z M421.3,247.5l-0.1,0.3
		L421,248l-0.4-0.3l-0.1-0.1l0.1-0.3l0.2,0l0.1-0.1L421.3,247.5z M419,245.7l-0.4-0.2l0.2,0l0.1-0.1l0.5,0.3l-0.3,0.1L419,245.7z
		 M418.2,248.4l0-0.2l-0.2-0.3l0.2-0.2l0.4-0.1l0-0.2l0.5-0.4l0.4-0.1l0-0.5l0.1-0.1l0.2,0l0.1,0.4l-0.1,0.1l0.2,0.3l0.1,0.4
		l-0.1,0.3l-0.4,0.1l-0.5,0.2l-0.1,0.1l0.5,0.5l-0.2,0.2l-0.7,0.4l-0.3-0.4l-0.1-0.4L418.2,248.4z M422.1,252.6l0.2,0.1l0.1,0.1
		l-0.2,0.2L422.1,252.6z M416.2,252.9l0-0.2l0.2,0l0.1,0.1l-0.2,0.2L416.2,252.9z"/>
	<path class="st1" d="M420.9,249l0.2,0v-0.2L420.9,249z"/>
	<path class="st1" d="M417.6,251.5v-0.2l-0.1-0.1l0-0.2l-0.1,0.3L417.6,251.5z"/>
	<path class="st1" d="M558.2,213.4l-0.8,1.7l-3.8,1.3l-1.9-0.8l-1.5,0.6l-0.2,4.2l0.2,2.1v6.7l-0.8,2.1l-1.2,1.5l-1.5,1.7l-1.7,0.4
		l-2.1,0.4l-2.7,0.2l0.4,1.3l0.4,3.8l0.2,2.3l0.4,3.8l0.4,1.9v1.9l-0.6,2.5l-0.9,4l-0.4,1.7l-1.1,2.1l-1.2,1.9l-1.1,1.7l-1,1.9
		l-1.3,1.2l-1.5,1.7l-0.8,1.5l1.1,0.2l-0.4,2.1l-2.9,0.4l-1.9-0.2h-4.6l-1.9,0.2l-2.3-0.4l-1.9,0.2l-2.1,0.2l-2.1-0.4l-2.3,0.2
		l-1.9-0.2l-1.9,0.4l-2.5-0.2l-1.9,0.2l-4.6-0.4l-1.7,0.2l-2.3,0.2h-4.4l-1.7-0.4l-2.3,0.2h-1.9l-2.1,0.2l-2.7-0.2l-2.1,0.2h-1.9
		l-1.9-0.2l-2.1,0.2l-2.5-0.4h-1.9l-1.9,0.4l-3.4-0.4l-0.2-1.7l1.7-0.6l-1.7-1.5l-1.1-1.7l-1.3-1.5l-1.3-1.7l-1.5-1.9l-0.6-1.7
		l-1.3-2.3l-0.4-1.5l-0.8-4.4l-0.2-2.1V249l-0.4-2.1l0.4-1.9l0.2-2.1l0.4-2.1l0.6-3.8l0.2-1.7h-4.4l-1.9-1.1l-1.7-1.3l-1.5-1.9
		l-0.6-2.1v-4.2l-0.2-2.1l0.6-2.3l-0.2-4.2l-1.3-1.1l-1.7,0.9l-4.4-0.6l-1-2.1l0.8-4.4l1.9-1l4.6,0.2l1.9,1.1l1.7,1.5l1.3,1.3
		l1.3,1.7l1.5,3.6l0.8,1.9l1.5,3.8l4.2-1l0.8-4.6l0.4-2.1l-0.2-1.9l-0.2-2.5l-0.8-3.2l0.4-2.5l2.3-0.4l1.1-0.4l1.7-1.3l0.2-4
		l1.7-1.7l3.6-1.7l1.9-0.6l6.1-0.8l2.3-0.8l1.9,0.2l2.5-0.6l1.9-0.2l2.3-0.2l5-0.6l-0.8-1.1l-1.7-1.7l-2.3-2.5l-0.2-4l1-1.5l1.9-1.1
		l2.3-0.8l2.5-0.4l4.8,0.4h1.7l2.5,0.8l1.7,0.6l1.5,1.7l-0.2,3.8l-2.1,3.1l-1.9,1.1l-0.6,1.7h2.7l2.5,0.8l1.9,0.2l2.5,0.2l2.1,0.2
		h1.7l2.5,0.6l2.3,0.2l4,0.6l1.9,0.6l3.8,1.9l0.8,1.5l0.9,4.2l1.5,1.5l0.8-0.4l2.7,1l0.6,2.5l-1.5,3.1l-0.2,1.9v4.4l1.7,4.6l4,1
		l1.9-4l0.6-1.7l1-3.8l1.3-1.3l1.7-1.9l1.7-1l1.7-0.6l4.2-1.1l2.1,1.3L558.2,213.4z M458.5,245l0.2-0.6v-0.6l-0.4-0.4h-0.6l-0.6,1.1
		l0.4,1.3L458.5,245z M458.8,235.7l0.2,1.1v1.5l0.2,0.2l0.4,0.2l0.2-0.2l0.2-0.4l0.4-0.4l0.2-1.7l-0.2-0.8l-0.8-0.2L458.8,235.7z
		 M460.2,253.8l0.4-0.4l-0.2-0.4l-0.4-0.2l-0.8,0.2l-0.4,0.4l0.2,0.2h0.2l0.4,0.2L460.2,253.8z M461.7,259.9l-0.6-0.6l-0.2,0.2
		l-0.4,0.2l-0.2,0.4l0.2,0.4h0.8l0.4-0.4V259.9z M461.1,249.2l-0.4,0.4l-0.2,0.4l0.2,0.4l0.2,0.2h0.6v-1.1L461.1,249.2z
		 M460.9,223.9l0.4,0.2l0.4-0.2h0.2l0.2-0.6l0.2-0.4l0.4-0.4v-0.8l1.7-1.3h1.5l0.8-0.9l-0.4-0.8l-1-1.3h-1.1l-0.8-0.6l-0.6,1
		l0.2,1.1l-1.1,0.8v0.6l-0.2,0.4v1.9l-0.8,0.4V223.9z M461.1,210.7l1.1,0.2v0.2l0.4,1.3v0.2l1.3,1.3l0.2,0.6v0.6h1.3l0.2-0.6
		l0.4-0.6l-0.4-1.3v-1.2l-0.2-0.9v-0.6l-0.8-0.4h-1.3L461.1,210.7z M463.2,243.9l-0.6-0.6l-0.6-0.2l-0.4-0.2v0.4l0.2,0.6l0.8,0.6
		l0.4-0.2L463.2,243.9z M464.2,232.8l-0.4-0.4l-0.4,0.2l-0.2,0.8v1l1-0.6L464.2,232.8L464.2,232.8z M465.5,225.4l0.8,0.2l-0.2-0.2
		l-0.2-0.4l-0.2-0.9l-0.8-0.2l-0.8-0.4l-0.4,0.4h-0.2v0.2l0.2,0.2l0.4,0.2l0.6,0.4L465.5,225.4z M463.6,207.5l0.4,0.2l0.4,0.4h0.2
		l0.4-0.2h0.4l0.4-0.2v-1.3l-0.2-0.8l-0.2-0.4l-0.8,0.2l-0.4,0.4l-0.4,0.2v0.2l-0.2,0.4L463.6,207.5z M476.4,208l-0.4-0.4h-0.4
		l-0.4-0.2l-0.4-0.4l-0.2-0.9l-0.4-0.4v-0.2l0.2-0.2l-0.2-0.2l0.4-0.8v-0.4l-0.6-1.3l-0.6-0.2h-0.2l-1.5-0.2l-1-0.2h-0.8l-1.1,0.2
		l-1.2,0.4H467l-1.3,0.8v0.8h0.4l0.4,0.2l0.4-0.2h0.4l0.4-0.2h1.3l0.2,0.2h0.6l0.6,0.2l0.8,0.4v0.6l0.8,0.4l0.6,0.4h0.2l0.4,0.8
		l0.6,0.6l-0.2,0.6l-0.2,0.4l0.4,1.1l0.4-0.2l0.8-0.9l0.6-0.2L476.4,208z M468.6,228.1l-0.8-0.8l-0.6-0.4l-0.2-0.2l0.2,0.4v0.6l-1,1
		l0.6,0.8l0.8,1.1l0.6-0.2L468.6,228.1z M467.4,213.8l0.4-0.4l0.2-0.4l-0.4-0.4l-0.2-0.4l-0.4,0.2l-0.4,0.4v1.3l-0.2,0.2v1.2
		l0.4,0.6l0.4,0.4h0.8l0.2-1l-0.6-0.8v-0.4L467.4,213.8z M470.3,210.3l-0.2-0.4v-0.2l-0.4-0.2H468l-0.8,0.2l-0.6,0.2v0.4l0.2,0.4
		h0.2l0.4-0.2l1.5,0.2h0.2l0.4-0.2l0.6-0.2L470.3,210.3L470.3,210.3z M469.9,220.4l-0.2-1.5l-1.1-0.6l-1,0.2l-0.6,1.3v1.2l0.2,1.1
		l0.2,0.2l0.8,0.6l0.6,0.4l0.4,0.2v-0.9l0.2-0.6v-0.2l0.2-0.9L469.9,220.4z M468.2,239.7l-0.2-0.2h-0.8v0.4l0.2,0.2h0.6L468.2,239.7
		z M470.9,209.2l0.6,0.2v-0.6l-1.5-1.5l-0.4-0.6l-0.4-1.3v-0.2l-1.3,1.9v0.4l0.4,0.2l0.6,0.6l0.6,0.4l0.2,0.4L470.9,209.2
		L470.9,209.2z M470.3,212.1l-0.2-0.4l-0.4-0.4h-0.4l-0.4,0.2l0.2,0.4l0.2,0.6l0.4,0.4l0.6,0.2L470.3,212.1z M469.1,215.7l0.4-0.2
		l0.2-0.2l-0.4-0.8l-0.2,0.4l-0.2,0.2v0.2L469.1,215.7z M470.7,198.5l1,1.1l0.4,0.6l0.4,0.4l0.4,0.6h0.4l0.2-0.2l0.6-0.2l0.4-0.6
		l-0.2-0.6h-0.4l-0.2-0.2l-0.6-0.4l-1.5-0.6l-0.6-0.4l-0.2,0.2L470.7,198.5z M471.8,216.6l-0.4-0.8l-0.4,0.4l-0.2,0.4l0.2,0.9
		l0.4,0.2l0.2-0.2L471.8,216.6z M475.8,212.8l-0.4-0.4l-0.4-0.2l-1.1-0.6l-0.8-0.4l-0.2,0.2l-0.2,0.4l-0.4,0.6l0.2,0.6l0.2,0.4
		l1.2,0.4h1.1l0.2-0.2l0.2-0.4L475.8,212.8z M474.3,217.6l-0.8-1.3l-0.2,0.4v1.5l-0.8,0.6v0.6l0.6,0.2l0.6-0.8l0.2-0.6L474.3,217.6z
		 M473.5,227.9l-0.6-0.2l-0.2,0.2h-0.2l0.2,0.6l0.4,0.4l0.4-0.4L473.5,227.9L473.5,227.9z M477.3,207.1l0.2-0.4v-0.4l-0.2-0.8h-0.8
		l-0.4,0.2v0.6L477.3,207.1z M478.9,219.7l-0.6-0.6l-0.2-0.4l-0.6-0.2h-0.2l-0.2,0.4l-0.2,0.2v0.6l0.4,0.4l0.6,0.2l0.4,0.2h0.4v-0.2
		l0.2-0.2L478.9,219.7L478.9,219.7z M482.5,208.8l-0.4-0.4h-0.4l-0.2,0.2l-0.2,0.4l-1,0.2l-0.4,0.2l-0.6,0.6l0.2,0.4l-0.2,0.4
		l0.6-0.2h1.1l0.2-0.2l0.4-0.2l0.2-0.4l0.4-0.2h0.2l0.2-0.4L482.5,208.8z M479.4,203.1l0.4,0.4l0.4,0.2h0.6l0.2-0.6l-0.2-0.4h-0.6
		L479.4,203.1z M483.1,200.2l-0.6-1.1l-0.8-0.4l-1.1,0.6v0.8l0.6,1.1l1,0.4l0.9-0.6L483.1,200.2L483.1,200.2z M484.6,217l-0.2-0.2
		l-0.2,0.2v0.4l-0.2,0.4l0.2,0.4v0.4l0.4-0.7L484.6,217z M486.5,205l0.8-0.4l-0.2-0.6v-0.4l-0.2-0.2l-0.4-0.2l-0.4-0.4l0.6-0.4v-0.4
		l-0.4-0.2l-0.2-0.2l-0.2,0.4l-0.2,0.6h0.2l0.2,0.2h-0.2l-0.4,0.2l-0.6,0.6l-0.2,0.4l0.4,0.8l0.8,0.4h0.4L486.5,205z M488,214.5
		l-0.6-0.9v0.7l0.2,0.2L488,214.5z M489.5,202.7v-0.6l-0.8-0.6l-0.4,0.2l-0.6,0.4l0.2,1l0.4-0.2h0.6L489.5,202.7z M492.4,211.7
		l-0.2-0.2v-0.4l-0.2-0.2v-0.2l-0.2-0.6l-0.2-0.4v-0.4l-0.4-0.2l-0.2-0.2l-0.8,0.4v0.2l-0.2,0.4l-0.4,0.4l1,1.1l0.6,0.4l0.4,0.2
		l0.4,0.4h0.4L492.4,211.7z M490.7,200.2l0.4,1.1l0.2-0.2l0.4-0.2v-1l-0.8-0.8L490.7,200.2z M497.4,199.8l0.6-0.4l0.2-0.6l-0.2-0.2
		l-0.4-0.2l-0.6,0.4l-0.2,0.6l0.2,0.4L497.4,199.8z M498.7,205l-0.2-0.6h-0.2l-0.2-0.2l-0.2,0.4l-0.2,0.2l0.6,0.6h0.4L498.7,205z
		 M503.3,263.5l-0.2-0.2h-1l-1,0.6l1.2,0.6l1.1-0.6L503.3,263.5L503.3,263.5z M504.4,200.4l-0.4-0.2h-0.6l-0.6,0.4v0.6l0.4,0.2h0.6
		l0.4-0.6L504.4,200.4z M511.3,267.7l-0.2-0.8h-0.6l-0.4,0.2v0.4l0.4,0.4l0.4,0.2L511.3,267.7z M513.8,200.4l-0.6-0.6l-0.6,0.8
		l-0.2,1.5l0.6-0.4l0.4-0.4L513.8,200.4z M516.8,262.2l-0.2-0.6l-0.4-0.2l-0.2-0.2l-0.4,0.4v0.6l0.2,0.6l0.4,0.2l0.2-0.2h0.4
		L516.8,262.2L516.8,262.2z M526.2,259.5l-0.4-0.4l-0.8-0.4l-0.4,0.2l-0.2,0.2l0.2,0.6l0.4,0.4h1l0.2-0.2V259.5z M528.1,262.2
		l-0.2,0.2l-0.4,0.2l-0.6,0.4v0.6l-0.4,0.6l0.2,0.2h0.8l0.4-0.4l0.2-0.6L528.1,262.2L528.1,262.2z M530.9,255.5l-0.2-0.4l-0.8-0.2
		l-0.4,0.2l-0.2,0.2v1.5l-0.2,0.4l0.2,0.4l0.2,0.2l0.6-0.2l0.4-0.2l0.2-0.2l0.2-0.6V255.5z M534,242.4l-0.4-0.4l-0.2-0.4l-0.4,0.8
		v0.6l0.2,0.4l0.4,0.2l0.2-0.2v-0.4L534,242.4z"/>
	<path class="st1" d="M393.8,199.4l1.2,1l1.4,0.9l1.2,1l1.4,1l1,1l1.4,0.5l0.3,2.7l-0.7,1l-1,1.7l-1.2,1.2l-1.7,2.7l-1,1.2l-1.4,1.5
		l-1.9,2.4l-1.4,1.5l-1.2,1l-1.2,1.2l-0.7,1.4l-1.2,0.9l-1.2,1.4l-1.5,1.2l-0.7,1l-1.2,1.4l-2.2,2.2l-1.4,1.2l-1.4,1.5l-0.8,1.2
		l-3.6,3.1l-1.5,1.4l-1,0.9l-1.4,1.2l-0.8,1.2l-1.4,1l-1.2,1l-1.4,1.4l-2.2,1.9l-1.4,1.4l-1.5,1l-1.4,0.8l-1.4,1l-2.5,0.2l-1.4-1.5
		l-1-1.2l-1.5-1l-1-1l-1.5-1l-1-1.4l-2.5-2l-2.4-0.3l-1.4,0.2l-1.4,1.4l-1.9,0.3l-3.1,1l-2.7,2l-1.2,1.2l-1,1.7l-1,1.2l-2,2.9
		l-1.5,1.4l-0.8,1.2l-3.1,2.7l-1.2,0.8l-1.5,1.2l-2.7,2.4l-1.7,2.4l-0.2,1.5l-0.2,1.4l-1.9,1.2l-2.2,0.2l-3.1-0.3l-1.2-1l-2.4-1.5
		l-0.7-1.4l-0.3-3.1l0.7-1.2l1.4-2.6l1.2-1.4l1.2-1l1.4-1.4l1.2-1l1.2-1.4l1.4-1.2l1.4-1l1-1.2l1-1l1.4-1.2l1.2-1.4l1.5-0.8l0.9-1.4
		l1.4-0.9l1.4-1.5l0.9-1.2l1.4-0.7l1.5-1.4l0.9-1.2l2.4-2.4l1.5-1.2l1.2-0.7l1.2-1l2.5-2.6l1.2-0.8l1.2-1.5l1.4-1.2l1.5-1l0.8-1.2
		l1.4-1l2.4-2.4l1.5-1l2-2.6l3.4-3.4l1.5-1.2l1-1.4l1.4-1.2l0.7-1l1.5-1.4l0.9-1.2l1.4-1l1.9-2.5l1.2-1.2l1-1.5l0.8-1.2l1.2-1.4
		l0.8-1l1.2-1.5l0.9-1.2l1-1.5l1-1l2-2.9l3.4-1.9l3.9,0.7l1.2,1l2.7,2.2l1.5,1.2l1,1l1.2,1l1,1.2l1.2,1L393.8,199.4z M317.9,255.1
		l-0.5,0.3l-0.3,0.7l0.7-0.2l0.3-0.5v-0.2L317.9,255.1z M325.5,249.2l-0.7,1l-0.2,0.5l0.3,0.2l0.7-0.2l0.4-0.7l0.3-0.5l-0.2-0.5
		L325.5,249.2z M327.7,244.9h-0.5l-0.2,0.7l0.3,0.7l0.5-0.7L327.7,244.9z M328.7,247v0.3l0.3,0.2l0.7-0.2l0.5-0.7l-0.7-0.2
		L328.7,247z M333.7,241.4h-0.3l-0.3,0.3l0.2,0.3l0.3,0.2h0.5v-0.3l-0.2-0.3L333.7,241.4z M335.5,237.1h-0.7v0.5l0.3,0.2l0.3-0.2
		l0.2-0.3L335.5,237.1z M340.1,236.1v0.3h0.2l0.5-0.5l0.3-0.7l-0.9,0.2L340.1,236.1z M344.7,239.7h-0.3l-0.2,0.2v0.2l-0.2,0.2v0.3
		h0.3l0.5-0.5l-0.2-0.2L344.7,239.7L344.7,239.7z M350,241.2l-0.3-0.2l-0.7,0.7v0.3l0.3,0.2l0.5-0.2l0.3-0.3L350,241.2z
		 M350.7,243.9h-0.3l-0.2,0.3l0.3,0.7h0.5v-0.5l-0.2-0.3L350.7,243.9z M354.7,246.8l-0.7,0.3l-0.3,0.3l-0.2,0.3l0.3,0.5l0.7-0.7
		l0.2-0.5L354.7,246.8L354.7,246.8z M353.9,243.4l-0.2,0.3v0.9h0.2l0.2,0.2l0.2-0.2v-0.7l-0.3-0.7V243.4z M357.8,242h-0.8l-0.2,0.3
		v0.5l-0.3,0.2l-0.2,0.3l0.2,0.5h0.3l0.5,0.2l0.7-1l0.2-0.5L357.8,242z M360.5,248.5h-0.3l-0.2,0.2l-0.2,0.3l0.5,0.3h0.3l0.3-0.3
		l-0.2-0.3L360.5,248.5z M361.2,242l-0.3,0.2l-0.5,1h0.3l0.5-0.2l0.3-0.7V242L361.2,242L361.2,242z M369,234.9l0.2-0.3v-1.7
		l-0.7-0.7l-0.2-0.7l-0.3,0.2l-0.5,0.2l-0.2,0.3l-0.3,0.3h-0.8l-0.3,0.2l-0.8,0.9l-0.7,0.5h-0.5l-0.5,0.3v0.2l0.2,0.3l0.5,0.2
		l0.3-0.3l1-0.3l0.3-0.5l0.9,0.2h0.7l1,0.9L369,234.9L369,234.9z M365.6,240l-1.2,0.3l0.2,0.9l0.2,1h0.5l0.5-0.7l0.7-0.7l-0.7-1.5
		L365.6,240z M366,236.9l-0.5-1l-0.5-0.2l-0.3,0.2l0.3,1.2l0.7,1.2L366,236.9z M370.9,234.9l-0.9-0.3l-0.5,0.3h-0.3l-0.3,0.3l-0.7,1
		l-0.2,0.3l0.2,0.8l0.3,1l0.5-0.3l0.7-0.7l0.7-0.5l0.5-0.5l0.2-0.5v-0.5L370.9,234.9z M369,227.1l0.7,0.5l-0.2,0.5v0.7l0.3,1.2
		l-0.3,0.8l0.7,0.7l0.8-0.7l0.5-1l0.3-0.8l0.2-0.5l0.2-0.3l-1.4-1L369,227.1L369,227.1z M372.8,230.3h-0.7l-0.3,0.8l-0.2,0.2h-0.2
		l-0.7,0.9v0.5l0.2,0.5l0.2,0.3l0.4,0.2l0.5-0.7v-0.8l0.3-0.7l0.7-0.3L372.8,230.3z M372.4,226.7l0.9,0.2v-0.9l-0.2-0.5l-0.2-0.3
		h-1.2l-0.2,0.5v0.3l0.3,0.7L372.4,226.7L372.4,226.7z M372.9,233.5l0.2-0.3v-0.3h-0.3l-0.3,0.2v0.5H372.9z M372.9,235.2l-0.3,0.3
		l0.2,0.3h0.3l0.2-0.3l0.3-0.2l0.2-0.5v-0.3l-0.7,0.3L372.9,235.2z M381.6,224.9l-0.3,0.3l-0.8-0.2l-0.7-0.7h-0.2l-0.2-0.3l-0.2-0.2
		v-1l-1-0.5h-0.7l-2,0.5l-1,0.3l-0.7,0.3h-0.3l-0.5,0.5v0.5l0.7,0.2h0.3l0.3-0.2h2.7l0.3,0.5l1.4,0.2l1.4,0.8v0.9l0.5,0.7l0.5-0.7
		l0.3-0.9l0.5-0.3V225L381.6,224.9z M375.3,228.9l-1-0.3l-1.2-0.2v0.3l-0.2,0.3l0.5,0.2l1,0.5h1.2l0.2-0.5L375.3,228.9z
		 M374.5,230.5h-0.3l-0.2,0.8l0.3,1l0.7-0.8l-0.2-0.9L374.5,230.5z M376.7,221.3l0.5,0.2l0.5-0.2l0.2-0.5v-0.3l-0.3-0.5l-0.5,0.2
		l-1-0.2l-1.2-0.2v0.5l1,0.5L376.7,221.3z M377,227.4l-0.8-0.8l-0.2-0.7l-0.3-0.7l-0.2,0.3l-0.2,0.7l-0.3,0.5l-0.2,0.3l0.5,0.8
		l0.7,0.9h0.9l0.5,0.2l0.3-1L377,227.4z M380.6,197.5l0.5-1.7l-0.5-1.4l-0.5-0.5l-0.7-0.9l-1.2-0.2l-1.4,0.5l-1.2,1.2L375,196
		l0.5,1.7l1.2,1.2l1.4,0.5l1.2-0.5l0.8-0.7L380.6,197.5z M382.1,223.3l-0.5-0.3l-0.5,0.3l-0.2,0.3l0.2,0.3l1.2,0.2v-0.5L382.1,223.3
		z M382.4,216.5l-0.8,0.2l-0.3,0.7l0.3,0.5l1,0.5l0.9-0.2l0.2-0.9l-0.5-0.5L382.4,216.5z M382.9,219.6l-0.3,0.2l-0.3,0.3v0.3
		l0.3,0.2l0.5-0.2l0.2-0.3v-0.3L382.9,219.6z M382.8,199.2l-0.3,0.7l0.2,0.3l0.2,0.2l0.5-0.5l0.3-1l-0.3,0.2L382.8,199.2z
		 M385.8,216l-0.3,0.2l0.2,0.3l0.2,0.5h0.2l0.3-0.2l0.2-0.5l-0.3-0.3H385.8z M387.7,212.1h-1l0.5,0.3l0.3,0.5h0.4l0.3,0.2l0.2-0.3
		v-0.3L387.7,212.1z M388,214.7h-1l-0.3,1l0.7,0.5l0.3-0.3l0.3-0.7l0.2-0.2L388,214.7z M389.6,207.9l-0.5-0.5l-0.3,0.2v0.7l0.2,0.2
		l0.3,0.2l0.3-0.3L389.6,207.9L389.6,207.9z M390.1,203.1l-0.2-0.2l-0.2-0.3h-0.7l-0.2,0.2v0.3l0.5,0.5l0.3,0.2l0.3-0.2L390.1,203.1
		L390.1,203.1z M393.8,207.5l-0.2,0.2h-0.3v0.3l-0.2,0.2l0.2,0.3l0.3,0.2l0.5-0.5v-0.7L393.8,207.5L393.8,207.5z"/>
</g>
</svg>
